<svg xmlns="http://www.w3.org/2000/svg" viewBox="0 0 239 262.16">
  <title>651_R0lVIEpFTiAzMzgtMjk [Converted]</title>
  <g style="isolation: isolate">
    <g id="Capa_1" data-name="Capa 1">
      <g>
        <g>
          <g>
            <rect x="63.78" y="31.8" width="171.25" height="226.39" style="fill: #fff"/>
            <path d="M324.15,117.3V335.73H160.85V117.3h163.3m8-8H152.9V343.68H332.1V109.34Z" transform="translate(-93.1 -81.52)" style="fill: #194ca0"/>
          </g>
          <g>
            <rect x="50.27" y="17.49" width="171.24" height="226.39" style="fill: #fff"/>
            <path d="M310.63,103V321.42H147.34V103H310.63m7.95-8H139.39V329.37H318.58V95Z" transform="translate(-93.1 -81.52)" style="fill: #194ca0"/>
          </g>
          <path d="M292.72,95c2.56,17.63,4.53,35.35,5.88,53.05,2.56,33.7.53,70.14-18.21,99.45-17.12,26.79-42.6,50.17-73.74,59-15.91,4.5-32.94,5.43-49.42,5.42-5.93,0-11.89-.2-17.84-.61v18.05H318.58V95Z" transform="translate(-93.1 -81.52)" style="fill: #fff;mix-blend-mode: multiply"/>
          <g>
            <path d="M233,173.77h64.68c3.08,0,3.08-4.77,0-4.77H233c-3.08,0-3.08,4.77,0,4.77Z" transform="translate(-93.1 -81.52)" style="fill: #194ca0"/>
            <path d="M233,188.08h64.68c3.08,0,3.08-4.77,0-4.77H233c-3.08,0-3.08,4.77,0,4.77Z" transform="translate(-93.1 -81.52)" style="fill: #194ca0"/>
            <path d="M233,202.4h64.68c3.08,0,3.08-4.77,0-4.77H233c-3.08,0-3.08,4.77,0,4.77Z" transform="translate(-93.1 -81.52)" style="fill: #194ca0"/>
            <path d="M233,216.71h64.68c3.08,0,3.08-4.77,0-4.77H233c-3.08,0-3.08,4.77,0,4.77Z" transform="translate(-93.1 -81.52)" style="fill: #194ca0"/>
            <path d="M233,231h64.68c3.08,0,3.08-4.77,0-4.77H233c-3.08,0-3.08,4.77,0,4.77Z" transform="translate(-93.1 -81.52)" style="fill: #194ca0"/>
            <path d="M233,245.34h64.68c3.08,0,3.08-4.77,0-4.77H233c-3.08,0-3.08,4.77,0,4.77Z" transform="translate(-93.1 -81.52)" style="fill: #194ca0"/>
            <path d="M233,259.66h64.68c3.08,0,3.08-4.77,0-4.77H233c-3.08,0-3.08,4.77,0,4.77Z" transform="translate(-93.1 -81.52)" style="fill: #194ca0"/>
            <path d="M159.27,294.12H299.76c3.08,0,3.08-4.77,0-4.77H159.27c-3.08,0-3.08,4.77,0,4.77Z" transform="translate(-93.1 -81.52)" style="fill: #194ca0"/>
            <path d="M159.27,303.13H299.76c3.08,0,3.08-4.77,0-4.77H159.27c-3.08,0-3.08,4.77,0,4.77Z" transform="translate(-93.1 -81.52)" style="fill: #194ca0"/>
            <path d="M159.27,312.14H299.76c3.08,0,3.08-4.77,0-4.77H159.27c-3.08,0-3.08,4.77,0,4.77Z" transform="translate(-93.1 -81.52)" style="fill: #194ca0"/>
          </g>
          <polygon points="176.44 20.68 176.44 6.36 92.94 6.36 92.94 41.35 191.56 41.35 191.56 20.68 176.44 20.68" style="fill: #fff;mix-blend-mode: multiply"/>
          <g>
            <rect x="90.56" y="3.98" width="90.66" height="27.04" style="fill: #fff"/>
            <path d="M270.34,89.47v19.09H187.63V89.47h82.71m8-8H179.68v35h98.61v-35Z" transform="translate(-93.1 -81.52)" style="fill: #194ca0"/>
          </g>
        </g>
        <g>
          <g>
            <path d="M156.22,271.34c-1.24,0-3.48-2.27-5.12-3.93-2.4-2.43-4.87-4.94-8.12-5.81a11.08,11.08,0,0,0-2.88-.36,28.26,28.26,0,0,0-7.32,1.33,23.35,23.35,0,0,1-5.15,1,2.17,2.17,0,0,1-1-.17c-1-.58-1.79-3.62-2.37-5.84-.88-3.35-1.78-6.81-4.21-9.24s-5.88-3.33-9.23-4.2c-2.22-.58-5.26-1.38-5.84-2.38s.3-4.07.86-6.13c.92-3.36,1.86-6.84,1-10.19s-3.38-5.74-5.81-8.13c-1.66-1.64-3.94-3.88-3.94-5.12s2.28-3.48,3.94-5.12c2.43-2.4,4.94-4.88,5.81-8.13s0-6.83-1-10.19c-.56-2.07-1.41-5.19-.86-6.14s3.62-1.79,5.84-2.37c3.35-.88,6.81-1.78,9.24-4.21s3.32-5.88,4.2-9.23c.58-2.22,1.37-5.26,2.37-5.84a2.17,2.17,0,0,1,1-.17,22.89,22.89,0,0,1,5.15,1,28.34,28.34,0,0,0,7.32,1.33,10.71,10.71,0,0,0,2.9-.37c3.23-.86,5.7-3.37,8.1-5.8,1.64-1.66,3.88-3.94,5.12-3.94s3.48,2.28,5.12,3.94c2.4,2.43,4.87,4.94,8.12,5.81a11.53,11.53,0,0,0,2.88.36,28.34,28.34,0,0,0,7.32-1.33,22.92,22.92,0,0,1,5.14-1,2.19,2.19,0,0,1,1,.17c1,.58,1.79,3.62,2.37,5.84.88,3.35,1.78,6.81,4.2,9.23s5.89,3.33,9.24,4.21c2.22.58,5.27,1.37,5.84,2.37s-.3,4.07-.86,6.13c-.92,3.37-1.87,6.84-1,10.2s3.38,5.73,5.81,8.13c1.66,1.63,3.93,3.88,3.93,5.12s-2.27,3.48-3.93,5.12c-2.43,2.39-4.94,4.87-5.81,8.12s0,6.84,1,10.2c.56,2.07,1.41,5.18.86,6.14s-3.62,1.79-5.84,2.37c-3.35.87-6.81,1.78-9.24,4.2s-3.32,5.89-4.2,9.23c-.58,2.22-1.37,5.27-2.38,5.85a2.14,2.14,0,0,1-1,.17,23.39,23.39,0,0,1-5.14-1,28.42,28.42,0,0,0-7.32-1.33,11.46,11.46,0,0,0-2.87.35c-3.26.88-5.74,3.39-8.13,5.82C159.7,269.07,157.46,271.34,156.22,271.34Z" transform="translate(-93.1 -81.52)" style="fill: #fff"/>
            <path d="M156.22,157.56c.72.64,1.62,1.54,2.29,2.22,2.64,2.68,5.63,5.71,9.92,6.86a15.45,15.45,0,0,0,3.91.49,32.09,32.09,0,0,0,8.37-1.46c.91-.25,1.95-.53,2.81-.71.29.87.58,2,.81,2.86.91,3.49,2,7.84,5.23,11s7.55,4.32,11.05,5.24c.85.22,2,.51,2.85.8-.18.89-.48,2-.71,2.81-1,3.51-2.15,7.87-1,12.27s4.18,7.29,6.85,9.93c.68.67,1.59,1.56,2.23,2.29-.64.72-1.55,1.62-2.22,2.29-2.68,2.64-5.71,5.63-6.86,9.93s0,8.76,1,12.27c.23.83.53,1.92.71,2.81-.87.29-2,.58-2.86.8-3.5.92-7.85,2-11,5.24s-4.32,7.54-5.23,11c-.23.85-.52,2-.81,2.86-.86-.18-1.9-.46-2.81-.71a31.68,31.68,0,0,0-8.37-1.46,15.18,15.18,0,0,0-3.91.49c-4.29,1.15-7.28,4.18-9.92,6.86-.67.67-1.57,1.58-2.29,2.22-.73-.64-1.62-1.55-2.29-2.23-2.64-2.67-5.63-5.7-9.94-6.86a15.3,15.3,0,0,0-3.89-.48,31.68,31.68,0,0,0-8.37,1.46c-.9.25-1.95.53-2.81.71-.29-.88-.58-2-.81-2.86-.91-3.5-2.05-7.85-5.23-11s-7.54-4.32-11-5.24c-.86-.22-2-.52-2.87-.8.19-.89.49-2,.72-2.82,1-3.5,2.14-7.87,1-12.26s-4.18-7.29-6.86-9.93c-.68-.67-1.58-1.57-2.22-2.29.64-.73,1.54-1.62,2.22-2.29,2.68-2.64,5.71-5.63,6.86-9.93s0-8.76-1-12.27c-.23-.83-.53-1.92-.72-2.81.88-.29,2-.58,2.87-.81,3.5-.91,7.85-2.05,11-5.23s4.33-7.55,5.24-11c.23-.86.52-2,.81-2.87.86.18,1.9.47,2.81.72a32.09,32.09,0,0,0,8.37,1.46,15,15,0,0,0,3.9-.49c4.3-1.15,7.29-4.18,9.93-6.86.67-.68,1.57-1.58,2.29-2.22m0-8.48c-5.29,0-9.39,8.57-14.27,9.88a7.39,7.39,0,0,1-1.85.22c-3.85,0-8.67-2.36-12.47-2.36a5.84,5.84,0,0,0-3,.71c-4.48,2.59-3.76,12.06-7.4,15.7s-13.11,2.91-15.7,7.4,2.77,12.25,1.43,17.3c-1.31,4.88-9.88,9-9.88,14.27s8.57,9.39,9.88,14.27c1.34,5.05-4,12.88-1.43,17.3s12.07,3.75,15.7,7.4,2.92,13.11,7.4,15.7a5.84,5.84,0,0,0,3,.71c3.8,0,8.62-2.36,12.47-2.36a7,7,0,0,1,1.85.22c4.88,1.3,9,9.88,14.27,9.88s9.39-8.58,14.27-9.88a7,7,0,0,1,1.85-.22c3.85,0,8.67,2.36,12.46,2.36a5.85,5.85,0,0,0,3-.71c4.48-2.59,3.76-12.06,7.4-15.7s13.11-2.92,15.7-7.4-2.78-12.25-1.43-17.3c1.31-4.88,9.88-9,9.88-14.27s-8.57-9.39-9.88-14.27c-1.35-5.05,4-12.88,1.43-17.3s-12.06-3.76-15.7-7.4-2.92-13.11-7.4-15.7a5.85,5.85,0,0,0-3-.71c-3.79,0-8.61,2.36-12.46,2.36a7.39,7.39,0,0,1-1.85-.22c-4.88-1.31-9-9.88-14.27-9.88Z" transform="translate(-93.1 -81.52)" style="fill: #194ca0"/>
          </g>
          <path d="M145.61,259.65c-21.43-15-31.87-43.06-22.53-68.18,4.92-13.24,16.34-17.91,29.28-20.68a272.62,272.62,0,0,1,39.63-5.1c-.89-3.39-1.79-6.77-4.2-8.16a5.85,5.85,0,0,0-3-.71c-3.79,0-8.61,2.36-12.46,2.36a7.39,7.39,0,0,1-1.85-.22c-4.88-1.31-9-9.88-14.27-9.88S146.83,157.65,142,159a7.39,7.39,0,0,1-1.85.22c-3.85,0-8.67-2.36-12.47-2.36a5.84,5.84,0,0,0-3,.71c-4.48,2.59-3.76,12.06-7.4,15.7s-13.11,2.91-15.7,7.4,2.77,12.25,1.43,17.3c-1.31,4.88-9.88,9-9.88,14.27s8.57,9.39,9.88,14.27c1.34,5.05-4,12.88-1.43,17.3s12.07,3.75,15.7,7.4,2.92,13.11,7.4,15.7a5.84,5.84,0,0,0,3,.71c3.8,0,8.62-2.36,12.47-2.36a7,7,0,0,1,1.85.22c4.88,1.3,9,9.88,14.27,9.88,3.66,0,6.75-4.1,9.92-7.07A51.76,51.76,0,0,1,145.61,259.65Z" transform="translate(-93.1 -81.52)" style="fill: #fff;mix-blend-mode: multiply"/>
          <g>
            <path d="M156.22,252.23a40,40,0,1,1,40-40A40.08,40.08,0,0,1,156.22,252.23Z" transform="translate(-93.1 -81.52)" style="fill: #fff"/>
            <path d="M156.22,176.15a36,36,0,1,1-36,36,36.09,36.09,0,0,1,36.05-36m0-8a44,44,0,1,0,44,44,44,44,0,0,0-44-44Z" transform="translate(-93.1 -81.52)" style="fill: #194ca0"/>
          </g>
          <path d="M156.22,168.19a45.64,45.64,0,0,0-5,.29c3.19,1.86,6.11,3.8,8.62,5.62,15.21,11,25,30.33,19.69,49.16-3.94,14-14.11,25.35-26.88,32.79,1.17.09,2.36.15,3.56.15a44,44,0,1,0,0-88Z" transform="translate(-93.1 -81.52)" style="fill: #fff;mix-blend-mode: multiply"/>
          <g>
            <path d="M138.11,231.87c.15-6.74,1.87-13.19,3.5-19.69.86-3.44,1.62-6.88,2.19-10.37.2-1.22,1-6.83,0-5.79l-5-.64c3.44,5.36,5.9,11.2,8.33,17.07,2.09,5,6,10.41,6.06,16,.07,4.09,6.42,4.09,6.35,0-.1-5.67-3.12-10.85-5.49-15.84-3.25-6.87-5.64-14-9.76-20.43a3.22,3.22,0,0,0-5-.64c-1.26,1.26-1.19,2.51-1.23,4.24a63,63,0,0,1-2.17,13c-1.82,7.66-4,15.19-4.15,23.11-.09,4.1,6.26,4.09,6.35,0Z" transform="translate(-93.1 -81.52)" style="fill: #194ca0"/>
            <path d="M130.49,227a217.38,217.38,0,0,1,27.74-4.91c4-.45,4.06-6.81,0-6.36a232.84,232.84,0,0,0-29.43,5.14c-4,1-2.28,7.1,1.69,6.13Z" transform="translate(-93.1 -81.52)" style="fill: #194ca0"/>
            <path d="M169.87,191.39c1,11.67-.31,23.36,1.43,35,.61,4,6.73,2.31,6.12-1.69-1.65-11-.29-22.21-1.2-33.29-.34-4-6.69-4.08-6.35,0Z" transform="translate(-93.1 -81.52)" style="fill: #194ca0"/>
            <path d="M163.25,213.09c7.62-.1,15.15-1.25,22.76-1.59,4.07-.18,4.09-6.53,0-6.35-7.61.34-15.14,1.49-22.76,1.59-4.09,0-4.09,6.4,0,6.35Z" transform="translate(-93.1 -81.52)" style="fill: #194ca0"/>
          </g>
        </g>
      </g>
    </g>
  </g>
</svg>
