<svg id="visual" viewBox="0 0 900 600" width="900" height="600" xmlns="http://www.w3.org/2000/svg" xmlns:xlink="http://www.w3.org/1999/xlink" version="1.1"><rect x="0" y="0" width="900" height="600" fill="#fff"></rect><defs><linearGradient id="grad1_0" x1="33.3%" y1="0%" x2="100%" y2="100%"><stop offset="20%" stop-color="#ff661f" stop-opacity="1"></stop><stop offset="80%" stop-color="#ff661f" stop-opacity="1"></stop></linearGradient></defs><defs><linearGradient id="grad1_1" x1="33.3%" y1="0%" x2="100%" y2="100%"><stop offset="20%" stop-color="#ff661f" stop-opacity="1"></stop><stop offset="80%" stop-color="#ffb58f" stop-opacity="1"></stop></linearGradient></defs><defs><linearGradient id="grad1_2" x1="33.3%" y1="0%" x2="100%" y2="100%"><stop offset="20%" stop-color="#ffffff" stop-opacity="1"></stop><stop offset="80%" stop-color="#ffb58f" stop-opacity="1"></stop></linearGradient></defs><defs><linearGradient id="grad2_0" x1="0%" y1="0%" x2="66.7%" y2="100%"><stop offset="20%" stop-color="#ff661f" stop-opacity="1"></stop><stop offset="80%" stop-color="#ff661f" stop-opacity="1"></stop></linearGradient></defs><defs><linearGradient id="grad2_1" x1="0%" y1="0%" x2="66.7%" y2="100%"><stop offset="20%" stop-color="#ffb58f" stop-opacity="1"></stop><stop offset="80%" stop-color="#ff661f" stop-opacity="1"></stop></linearGradient></defs><defs><linearGradient id="grad2_2" x1="0%" y1="0%" x2="66.7%" y2="100%"><stop offset="20%" stop-color="#ffb58f" stop-opacity="1"></stop><stop offset="80%" stop-color="#ffffff" stop-opacity="1"></stop></linearGradient></defs><g transform="translate(900, 0)"><path d="M0 324.5C-40 313.2 -80 301.9 -119 287.3C-158 272.8 -196 255 -227.7 227.7C-259.4 200.4 -284.7 163.7 -299.8 124.2C-314.9 84.7 -319.7 42.3 -324.5 0L0 0Z" fill="#ffdac6"></path><path d="M0 216.3C-26.7 208.8 -53.3 201.3 -79.3 191.6C-105.3 181.8 -130.7 170 -151.8 151.8C-172.9 133.6 -189.8 109.1 -199.9 82.8C-209.9 56.4 -213.1 28.2 -216.3 0L0 0Z" fill="#ff8f59"></path><path d="M0 108.2C-13.3 104.4 -26.7 100.6 -39.7 95.8C-52.7 90.9 -65.3 85 -75.9 75.9C-86.5 66.8 -94.9 54.6 -99.9 41.4C-105 28.2 -106.6 14.1 -108.2 0L0 0Z" fill="#ff661f"></path></g><g transform="translate(0, 600)"><path d="M0 -324.5C42.3 -320.1 84.6 -315.7 124.2 -299.8C163.7 -283.9 200.6 -256.5 222.7 -222.7C244.9 -189 252.5 -148.8 267 -110.6C281.5 -72.4 303 -36.2 324.5 0L0 0Z" fill="#ffdac6"></path><path d="M0 -216.3C28.2 -213.4 56.4 -210.5 82.8 -199.9C109.2 -189.3 133.7 -171 148.5 -148.5C163.3 -126 168.3 -99.2 178 -73.7C187.7 -48.3 202 -24.1 216.3 0L0 0Z" fill="#ff8f59"></path><path d="M0 -108.2C14.1 -106.7 28.2 -105.2 41.4 -99.9C54.6 -94.6 66.9 -85.5 74.2 -74.2C81.6 -63 84.2 -49.6 89 -36.9C93.8 -24.1 101 -12.1 108.2 0L0 0Z" fill="#ff661f"></path></g></svg>