<svg xmlns="http://www.w3.org/2000/svg" xmlns:xlink="http://www.w3.org/1999/xlink" viewBox="0 0 3500 2500"><defs><style>.cls-1{fill:none;}.cls-2{isolation:isolate;}.cls-3{fill:#fff;}.cls-4{fill:#c2d8f2;}.cls-5{fill:#9bd;}.cls-6{fill:#576c89;}.cls-22,.cls-34,.cls-36,.cls-38,.cls-40,.cls-41,.cls-43,.cls-45,.cls-46,.cls-47,.cls-7{mix-blend-mode:soft-light;}.cls-8{fill:#466eb6;}.cls-9{fill:#86b1f2;}.cls-10{fill:#355389;}.cls-11{fill:#efefef;}.cls-12{clip-path:url(#clip-path);}.cls-13{fill:#fae0b2;}.cls-14{fill:#3c8f7c;}.cls-15{fill:#50bfa5;}.cls-16{fill:#f7cc7f;}.cls-17{fill:#fe875e;}.cls-18{fill:#13375b;}.cls-19{fill:#9bc1f9;}.cls-20,.cls-35{fill:#d0e4ea;}.cls-21{fill:#adc3c9;}.cls-22{fill:url(#linear-gradient);}.cls-23{fill:#171c51;}.cls-24{fill:#f79c8d;}.cls-25{fill:#f47458;}.cls-26{fill:#e5bd83;}.cls-27{fill:#f8c558;}.cls-28{fill:#184655;}.cls-29{fill:#587cf8;}.cls-30{fill:#bababa;}.cls-31{fill:#9e9e9e;}.cls-32{fill:#d1d1d1;}.cls-33{fill:#11442f;}.cls-34{fill:url(#linear-gradient-2);}.cls-35,.cls-51,.cls-54{mix-blend-mode:multiply;}.cls-36{fill:url(#linear-gradient-3);}.cls-37{fill:#84bf50;}.cls-38{fill:url(#linear-gradient-4);}.cls-39{fill:#1c5518;}.cls-40{fill:url(#linear-gradient-5);}.cls-41{fill:url(#linear-gradient-6);}.cls-42{fill:#5950bf;}.cls-43{fill:url(#linear-gradient-7);}.cls-44{fill:#2d1855;}.cls-45{fill:url(#linear-gradient-8);}.cls-46{fill:url(#linear-gradient-9);}.cls-47{fill:url(#linear-gradient-10);}.cls-48{fill:#e8fde6;}.cls-49{fill:#a1cd96;}.cls-50{fill:#17511a;}.cls-51{opacity:0.4;}.cls-52{fill:#060919;}.cls-53{fill:#fbcafe;}.cls-54{fill:#f48c7f;}</style><clipPath id="clip-path"><path class="cls-1" d="M2563.84,975.05V1740a90.29,90.29,0,0,1-51.89,81.72,89.09,89.09,0,0,1-38.38,8.61H1071.17A90.44,90.44,0,0,1,980.83,1740V975.05a90.44,90.44,0,0,1,90.34-90.33h1402.4A90.39,90.39,0,0,1,2563.84,975.05Z"/></clipPath><linearGradient id="linear-gradient" x1="1636.53" y1="2326.68" x2="1636.53" y2="2181.27" gradientTransform="translate(-414.65 -1073.56) rotate(-0.75)" gradientUnits="userSpaceOnUse"><stop offset="0"/><stop offset="1" stop-color="#fff"/></linearGradient><linearGradient id="linear-gradient-2" x1="1799.45" y1="2088.49" x2="1799.45" y2="1743.06" gradientUnits="userSpaceOnUse"><stop offset="0" stop-color="#fff"/><stop offset="1"/></linearGradient><linearGradient id="linear-gradient-3" x1="1797.85" y1="1749.73" x2="1797.85" y2="1717.57" gradientTransform="matrix(1, 0, 0, 1, 0, 0)" xlink:href="#linear-gradient"/><linearGradient id="linear-gradient-4" x1="1799.45" y1="2091.49" x2="1799.45" y2="1718.86" gradientTransform="matrix(1, 0, 0, 1, 0, 0)" xlink:href="#linear-gradient"/><linearGradient id="linear-gradient-5" x1="2051.33" y1="2088.49" x2="2051.33" y2="1743.06" gradientTransform="translate(156.52)" xlink:href="#linear-gradient-2"/><linearGradient id="linear-gradient-6" x1="2049.73" y1="1749.73" x2="2049.73" y2="1717.57" gradientTransform="translate(156.52)" xlink:href="#linear-gradient"/><linearGradient id="linear-gradient-7" x1="2051.33" y1="2091.49" x2="2051.33" y2="1718.86" gradientTransform="translate(156.52)" xlink:href="#linear-gradient"/><linearGradient id="linear-gradient-8" x1="2002.05" y1="2088.14" x2="2002.05" y2="1682.81" xlink:href="#linear-gradient-2"/><linearGradient id="linear-gradient-9" x1="2000.18" y1="1690.64" x2="2000.18" y2="1652.9" gradientTransform="matrix(1, 0, 0, 1, 0, 0)" xlink:href="#linear-gradient"/><linearGradient id="linear-gradient-10" x1="2002.05" y1="2091.65" x2="2002.05" y2="1654.41" gradientTransform="matrix(1, 0, 0, 1, 0, 0)" xlink:href="#linear-gradient"/></defs><title>605 [Converted]</title><g class="cls-2"><g id="Background"><rect class="cls-3" width="3500" height="2500"/><path class="cls-4" d="M2885.81,2139s9.22-359.31-63.26-572.78,154.53-439.45,31.44-749.34C2763.21,588.29,2243.83,174.78,1701,364c-412.14,143.69-223.08,341.87-304.68,555s-200.56,448.56-243.58,495.45,40.06-180.91,40.25-282.31-307-7-409.41,147.54,31.5,642.71,85.17,739,184.4,120.2,184.4,120.2Z"/><path class="cls-5" d="M2674.24,754.58a49.5,49.5,0,1,1,49.49-49.5A49.55,49.55,0,0,1,2674.24,754.58Zm0-87a37.5,37.5,0,1,0,37.49,37.49A37.54,37.54,0,0,0,2674.24,667.59Z"/><path class="cls-5" d="M1145.15,598.56a49.49,49.49,0,1,1,49.5-49.49A49.54,49.54,0,0,1,1145.15,598.56Zm0-87a37.49,37.49,0,1,0,37.5,37.49A37.54,37.54,0,0,0,1145.15,511.58Z"/><path class="cls-5" d="M553.6,1567.54a49.49,49.49,0,1,1,49.49-49.49A49.55,49.55,0,0,1,553.6,1567.54Zm0-87a37.49,37.49,0,1,0,37.49,37.49A37.54,37.54,0,0,0,553.6,1480.56Z"/><path class="cls-5" d="M2266.38,711.18a49.49,49.49,0,1,1,49.5-49.49A49.54,49.54,0,0,1,2266.38,711.18Zm0-87a37.49,37.49,0,1,0,37.5,37.49A37.54,37.54,0,0,0,2266.38,624.2Z"/><path class="cls-5" d="M1698.5,1093.35a14.33,14.33,0,0,1-2.69-.25l-48.66-9.26h0a14.53,14.53,0,0,1-11.36-10.8l-4.39-18,89.64,17.07-10.71,15.15A14.52,14.52,0,0,1,1698.5,1093.35Zm-51-23.06a2.48,2.48,0,0,0,1.92,1.76h0l48.65,9.26a2.49,2.49,0,0,0,2.43-.92Z"/><path class="cls-5" d="M1714.15,1082.39a33.06,33.06,0,0,1-6.25-.59l-67.85-12.92a33.3,33.3,0,0,1-22.64-16.11l-15.86-27.56a33.3,33.3,0,0,1-3.85-22.85l14.13-74.21,174,33.14-14.13,74.21a33.3,33.3,0,0,1-12,19.84l-24.88,19.8A33.3,33.3,0,0,1,1714.15,1082.39Zm-92.78-140.21-11.89,62.43a21.33,21.33,0,0,0,2.47,14.61l15.86,27.57a21.3,21.3,0,0,0,14.49,10.3l67.85,12.92a21.32,21.32,0,0,0,17.26-4.26l24.88-19.8a21.31,21.31,0,0,0,7.66-12.69l11.89-62.43Z"/><path class="cls-5" d="M1778.1,971.65a20.17,20.17,0,0,1-3.45-.29A585.07,585.07,0,0,1,1618,941.53a21.2,21.2,0,0,1-16.59-22.89c5-46.95-5-65-20.23-92.27-7.48-13.41-16-28.62-24.57-50.13l-.48-1.18c-.45-1.14-.89-2.29-1.32-3.44l-.36-1c-.39-1-.77-2.1-1.14-3.16-.16-.44-.31-.9-.47-1.35-.39-1.13-.77-2.27-1.13-3.41l-.25-.75c-.43-1.35-.85-2.71-1.25-4.07l-.37-1.29c-.31-1.05-.6-2.1-.88-3.14l-.33-1.22c-.37-1.38-.72-2.76-1.06-4.15l-.22-1c-.27-1.12-.53-2.25-.78-3.38l-.28-1.33c-.27-1.27-.53-2.53-.77-3.79l-.11-.56c-.27-1.42-.52-2.86-.76-4.29l-.21-1.27q-.27-1.69-.51-3.39l-.16-1.14c-.2-1.44-.38-2.89-.55-4.35l-.1-.94c-.14-1.19-.26-2.39-.37-3.59l-.11-1.29c-.12-1.38-.23-2.75-.32-4.13l0-.35c-.1-1.49-.17-3-.23-4.47l0-1.25c0-1.19-.07-2.38-.09-3.58l0-1.07c0-1.5,0-3,0-4.5l0-.94c0-1.24,0-2.47.09-3.7l0-1.27c.06-1.48.13-3,.22-4.44V688c.09-1.53.21-3.05.34-4.58l.11-1.25c.11-1.23.24-2.46.37-3.69l.11-1c.17-1.53.37-3.06.57-4.59l.15-1c.17-1.25.36-2.5.56-3.75l.21-1.25c.25-1.55.52-3.09.82-4.63.32-1.7.66-3.38,1-5.06.07-.33.14-.65.22-1l.19-.83c.24-1.06.48-2.13.73-3.18.1-.42.21-.84.32-1.25l.26-1c.23-.88.45-1.77.69-2.65.12-.46.25-.93.38-1.39l.33-1.16.66-2.33c.16-.51.31-1,.47-1.54l.28-.89c.25-.8.49-1.6.75-2.39.17-.54.35-1.08.53-1.62l.28-.83c.26-.78.52-1.55.79-2.32l.6-1.68.24-.65c.29-.79.58-1.59.88-2.37l.7-1.83.13-.31c.32-.84.65-1.68,1-2.5l.81-2,.07-.17c.35-.81.69-1.63,1.05-2.44s.62-1.41.94-2.12.72-1.6,1.09-2.4l1-2.09c.38-.79.76-1.58,1.15-2.36s.69-1.38,1-2.07.79-1.55,1.2-2.32l1.08-2,1.26-2.29c.37-.67.75-1.34,1.13-2s.87-1.5,1.3-2.25l1.18-2,1.36-2.21c.4-.65.81-1.29,1.22-1.93s.93-1.45,1.41-2.18.83-1.27,1.26-1.9l1.46-2.13.17-.25,1.13-1.62c.47-.67,1-1.33,1.43-2l.31-.42c.37-.51.73-1,1.11-1.51l1.41-1.87.52-.67c.33-.44.67-.88,1-1.31l1.45-1.83.55-.68c.34-.42.67-.84,1-1.26l1.43-1.71.7-.82c.32-.39.65-.78,1-1.16.51-.6,1-1.19,1.57-1.79l.65-.74c.32-.36.64-.73,1-1.08.52-.58,1-1.14,1.57-1.71l.83-.89.87-.94,2.06-2.13.59-.6c.23-.24.46-.48.7-.71,1.12-1.14,2.26-2.25,3.41-3.36l.52-.49.32-.3c.88-.83,1.77-1.67,2.66-2.49l.91-.81.89-.8,1.78-1.59,1.06-.91.9-.76c.56-.48,1.12-1,1.69-1.43l1.18-1,.9-.73c.54-.44,1.08-.89,1.63-1.32l1.25-1,.83-.65,1.71-1.32,1.41-1,.62-.46,1.82-1.34,1.48-1,.6-.42c.61-.44,1.23-.87,1.84-1.29l1.65-1.11.25-.16,2.08-1.39,1.8-1.15.14-.09c.7-.44,1.4-.89,2.11-1.32s1.31-.81,2-1.2,1.42-.86,2.13-1.27l2-1.16,2.16-1.22,2-1.11c.72-.4,1.45-.78,2.18-1.17L1653,519l2.21-1.11,2.09-1,2.23-1.06,2.11-1,2.27-1,2.14-.92c.76-.33,1.52-.64,2.28-.95l.11,0,2.06-.83,2.31-.9.18-.07,2-.76c.75-.28,1.52-.55,2.28-.82l.38-.14,1.87-.66,2-.67.79-.27,1.76-.57,2-.61,1-.3,1.64-.49c.66-.2,1.33-.38,2-.56l1.11-.31,1.57-.43,1.89-.49,1.3-.32,1.5-.38,2-.46,1.34-.3,1.41-.32,2.35-.47,1.26-.26,1.15-.23c1.58-.3,3.17-.58,4.76-.84l1.26-.2,1.26-.19c.77-.12,1.54-.24,2.31-.34l1.5-.2,1.32-.17c.68-.09,1.36-.18,2-.25s1.08-.12,1.62-.18l1.32-.13,2-.2,1.68-.13,1.24-.1,2-.15,1.84-.11,1-.05c.7,0,1.4-.08,2.1-.1l1.89-.07.81,0c.75,0,1.5-.05,2.26-.06l2.1,0h2.88l2.26,0h.21l2.53.06,2.48.1c.84,0,1.69.07,2.53.12l2.49.16,2.54.19,2.5.23c.85.07,1.69.16,2.54.25l2.51.28.51.06.79.09.69.1.4.05,3.24.46,2.27.34c1,.17,2.09.34,3.13.53l.36.06,2,.35.81.14,1.66.34,1.39.28,1.44.29c1.41.3,2.81.63,4.22,1l.94.21a203.28,203.28,0,0,1,154.33,222l-.12,1c-.17,1.36-.36,2.73-.56,4.11-.08.61-.18,1.22-.28,1.84q-.26,1.67-.54,3.33c-.13.76-.27,1.52-.41,2.28l-.08.5-.15.82c-.07.37-.14.73-.22,1.09l-.13.63c-.15.78-.31,1.57-.48,2.36-.22,1.05-.45,2.09-.69,3.13l-.12.52c-.12.55-.25,1.1-.38,1.66-.28,1.16-.57,2.31-.87,3.46l-.13.55c-.08.29-.15.58-.22.87l-.46,1.66c-.35,1.3-.72,2.59-1.09,3.87l-.17.57c-.42,1.41-.86,2.8-1.3,4.18l-.37,1.13c-.45,1.36-.91,2.71-1.38,4.06l-.32.89c-.42,1.18-.85,2.36-1.3,3.54l-.34.91c-.51,1.33-1,2.65-1.57,4l-.44,1.08c-.55,1.32-1.1,2.63-1.67,3.92l-.23.51c-.54,1.21-1.09,2.41-1.65,3.61-.15.34-.32.7-.49,1-.59,1.25-1.2,2.5-1.82,3.75l-.49,1c-.55,1.09-1.12,2.18-1.69,3.27l-.4.76c-.65,1.21-1.32,2.43-2,3.64l-.6,1.06c-.68,1.2-1.38,2.4-2.08,3.59l-.46.75c-.62,1-1.25,2-1.88,3.06l-.61,1c-.72,1.14-1.46,2.27-2.21,3.4l-.68,1c-.69,1-1.38,2-2.09,3.05l-.49.7c-.75,1.06-1.51,2.12-2.29,3.17-.24.34-.5.69-.75,1-.8,1.07-1.61,2.13-2.42,3.19l-.7.88c-.7.89-1.4,1.78-2.11,2.65l-.7.86c-.84,1-1.69,2-2.55,3l-.86,1c-.86,1-1.73,2-2.6,3l-.77.83-1.34,1.47-1.51,1.61c-16,17-29.67,28.1-41.74,37.89-24.37,19.76-40.47,32.82-52.94,78.07A21.25,21.25,0,0,1,1778.1,971.65Zm-32.25-462.88h-2l-2,0-2.1.05-.82,0-1.74.05-1.94.1-1,.06-1.68.09-1.83.14-1.28.1-1.52.12-1.78.18-1.36.14-1.46.16-1.86.23-1.39.18-1.32.17-2.12.32-1.34.21-1.08.16c-1.5.25-3,.51-4.47.79l-1,.2-1.34.27c-.73.14-1.45.28-2.17.44l-1.23.27-1.41.32-1.82.42-1.34.34-1.34.34c-.58.14-1.16.28-1.74.44l-1.41.38-1.15.32-1.83.52c-.5.14-1,.3-1.49.45l-1,.3-1.85.57-1.61.53-.81.26c-.63.21-1.27.42-1.89.64s-1.16.4-1.73.6l-.33.12-2.21.8-1.88.71-.17.07c-.73.27-1.46.55-2.18.84L1673,523l-.1,0-2.15.89-2,.87-2.14.95-2,.92-2.1,1-2,1-2.08,1-1.94,1-2,1.09-1.92,1.05c-.68.38-1.36.76-2,1.15l-1.89,1.09-2,1.19-1.85,1.13-2,1.25-.13.09c-.56.35-1.13.71-1.69,1.08l-1.91,1.27-.3.2-1.53,1-1.73,1.2-.61.43-1.36,1-1.7,1.25-.63.47-1.29,1-1.58,1.22-.86.66-1.12.88-1.52,1.22-.92.75-1.07.87c-.52.43-1,.87-1.54,1.32l-1,.8-.94.8-1.65,1.48-.94.84-.78.7c-.84.77-1.67,1.55-2.5,2.34l-.79.74c-1.08,1-2.16,2.09-3.22,3.16l-.57.59-.65.66c-.64.66-1.29,1.32-1.93,2l-.75.81-.87.94c-.49.52-1,1-1.46,1.58l-.85,1-.69.78c-.49.55-1,1.1-1.46,1.66l-.87,1-.73.86-1.32,1.58-.92,1.14-.57.71-1.36,1.7c-.31.39-.61.79-.92,1.19l-.52.68-1.32,1.75-1,1.4-.31.42c-.45.62-.91,1.24-1.35,1.87l-1,1.5-.17.25-1.38,2c-.4.59-.79,1.19-1.18,1.79s-.89,1.36-1.33,2l-1.14,1.83c-.43.68-.86,1.37-1.28,2.07s-.74,1.24-1.11,1.86l-1.23,2.11-1.06,1.88-1.18,2.15-1,1.92c-.38.72-.76,1.45-1.13,2.18s-.65,1.29-1,1.94l-1.08,2.23-.93,2c-.35.75-.69,1.51-1,2.26s-.59,1.32-.88,2-.66,1.53-1,2.3l-.07.17c-.26.61-.52,1.22-.77,1.84l-.93,2.35-.12.31c-.22.57-.45,1.13-.66,1.7-.28.74-.55,1.48-.82,2.22l-.24.67c-.19.51-.37,1-.56,1.54-.25.72-.49,1.44-.73,2.16l-.29.86c-.16.49-.33,1-.48,1.47-.24.73-.47,1.47-.7,2.22l-.29.93-.42,1.39c-.21.71-.41,1.43-.61,2.16l-.34,1.2c-.12.41-.24.82-.35,1.23-.22.82-.42,1.64-.63,2.46l-.28,1.11c-.1.36-.19.72-.28,1.08-.24,1-.46,2-.68,3l-.21.92c-.07.27-.13.53-.19.8-.34,1.58-.66,3.17-1,4.76s-.53,2.91-.78,4.36l-.19,1.18c-.19,1.18-.37,2.36-.53,3.53l-.14.92c-.19,1.44-.37,2.88-.54,4.31l-.1,1c-.13,1.17-.24,2.32-.35,3.48l-.1,1.18c-.12,1.44-.24,2.88-.33,4.31v.15c-.09,1.38-.15,2.77-.21,4.16l0,1.19c0,1.16-.07,2.32-.08,3.48l0,.89c0,1.42,0,2.83,0,4.23l0,1c0,1.13,0,2.25.08,3.37l0,1.17c0,1.41.12,2.81.21,4.21l0,.31c.09,1.32.19,2.61.3,3.9l.11,1.22c.11,1.13.22,2.25.34,3.37l.1.89c.16,1.36.33,2.73.52,4.09l.15,1.08q.23,1.59.48,3.18l.2,1.2c.22,1.34.46,2.69.71,4l.1.52c.23,1.2.47,2.38.73,3.57l.27,1.25q.35,1.59.72,3.18l.22.92q.46,2,1,3.9l.31,1.14c.27,1,.54,2,.82,3l.36,1.22c.38,1.27.76,2.55,1.17,3.82l.24.72c.34,1.07.7,2.13,1.06,3.2.15.42.29.85.44,1.27.35,1,.71,2,1.08,3l.34.92c.4,1.09.82,2.16,1.24,3.24h0l.45,1.12c8.33,20.82,16.62,35.67,23.92,48.77,15.76,28.24,27.14,48.65,21.68,99.39a9.14,9.14,0,0,0,7.34,9.91l.4.08.39.13a573.52,573.52,0,0,0,154.18,29.36l.41,0,.41.08a9.15,9.15,0,0,0,10.47-6.52c13.5-49,31.72-63.74,56.95-84.2,11.78-9.55,25.13-20.38,40.58-36.82l1.44-1.53c.42-.45.83-.91,1.25-1.37l.72-.79c.83-.92,1.65-1.85,2.45-2.78l.82-.94c.8-.95,1.61-1.9,2.4-2.87l.65-.8c.67-.82,1.33-1.66,2-2.49l.66-.84c.76-1,1.52-2,2.27-3l.71-1c.73-1,1.45-2,2.16-3l.46-.66c.66-1,1.32-1.9,2-2.87l.65-1q1.05-1.59,2.07-3.21l.57-.9c.6-1,1.19-1.92,1.78-2.89l.43-.7q1-1.67,1.95-3.36l.57-1c.63-1.13,1.26-2.27,1.88-3.43l.37-.7c.54-1,1.07-2,1.59-3.08l.46-.9c.59-1.19,1.16-2.36,1.72-3.54l.46-1c.53-1.14,1-2.27,1.55-3.4l.2-.46c.55-1.24,1.07-2.47,1.58-3.7l.42-1c.5-1.23,1-2.47,1.47-3.71l.33-.87c.42-1.11.83-2.22,1.23-3.34l.29-.82c.45-1.27.88-2.54,1.3-3.83l.34-1c.42-1.31.83-2.62,1.23-3.94l.16-.55c.35-1.2.69-2.41,1-3.63l.43-1.57c0-.2.11-.42.16-.64l.17-.7c.28-1.08.56-2.16.82-3.25.12-.51.23-1,.35-1.52l.12-.54c.22-1,.44-2,.65-2.93.16-.75.31-1.49.45-2.24l.15-.73c.06-.29.13-.58.18-.87s.08-.42.11-.63l.11-.61.39-2.17.51-3.13c.09-.57.17-1.15.26-1.73.19-1.3.36-2.59.52-3.87l.12-.93a191.28,191.28,0,0,0-145.23-208.9l-.88-.2c-1.32-.31-2.65-.62-4-.9l-1.28-.26-1.48-.31-1.46-.29-.77-.14-1.81-.32-.36-.06-3-.5-2.14-.32-3-.43-2.25-.28-2.36-.27-2.39-.24-2.36-.21-2.39-.18-2.34-.15-2.38-.11-2.34-.1-2.38-.05h-.21c-.7,0-1.41,0-2.12,0Z"/><path class="cls-5" d="M1729.7,962.1l-11.79-2.26c.09-.47,9.24-48,22.53-97.7,7.84-29.29,15.57-53.62,23-72.32.37-.94.74-1.86,1.12-2.77-13.42-1-29.86-4.08-50-10.26q-7.85-2.4-14.58-4.94a187.11,187.11,0,0,1-1.15,27.07c-14.06,127.71-19.33,152.9-19.55,153.91l-11.73-2.53c0-.24,5.43-26.24,19.35-152.69a161.92,161.92,0,0,0,.72-30.86c-30.79-14-39.95-29.65-37.25-40.94,1.9-7.92,9.75-12.54,18.66-11,9.75,1.7,18.5,9.91,24,22.53a81.93,81.93,0,0,1,5.76,21.14c5.63,2.31,12,4.6,19.27,6.83,20.88,6.41,38,9.39,51.55,10,7.48-16.08,14.68-26.25,21.85-30.91,12.06-7.85,22.06-5.22,27.38-.14,6.36,6.07,7.28,15.86,2.29,24.38-3.15,5.38-13.75,18-43.78,18.75-7.08,16.65-15.56,41.31-25.32,77.78C1738.87,914.46,1729.79,961.63,1729.7,962.1Zm76.73-210.64a16.18,16.18,0,0,0-8.41,3c-3.33,2.16-8.36,7.57-15,20.62,15.22-1.33,24.17-6.4,27.75-12.51,2.45-4.17,1.65-7.84-.22-9.63A5.84,5.84,0,0,0,1806.43,751.46ZM1665.6,726.52c-1.61,0-3.19.53-3.56,2.08-1,4.14,4.46,13.55,23.31,23.61-4-16.59-11.81-24.42-18.38-25.57A8.83,8.83,0,0,0,1665.6,726.52Z"/><rect class="cls-5" x="1686.43" y="895.22" width="12" height="166.46" transform="translate(241.05 2288.1) rotate(-72.1)"/><rect class="cls-5" x="1683.25" y="911.93" width="12" height="166.46" transform="translate(222.95 2296.65) rotate(-72.1)"/><rect class="cls-5" x="1680.06" y="928.64" width="12" height="166.46" transform="translate(204.85 2305.19) rotate(-72.1)"/><rect class="cls-5" x="1673.16" y="948.06" width="12" height="158.62" transform="matrix(0.31, -0.95, 0.95, 0.31, 185.31, 2309.35)"/><rect class="cls-5" x="1998.39" y="717.77" width="12" height="63.67" transform="translate(893.1 2578.41) rotate(-79.22)"/><rect class="cls-5" x="1962.52" y="607.5" width="63.67" height="12" transform="translate(-90.79 690.86) rotate(-19.22)"/><rect class="cls-5" x="1885.77" y="494.65" width="63.67" height="12" transform="translate(285.96 1625.64) rotate(-49.22)"/><rect class="cls-5" x="1762.88" y="435.29" width="63.67" height="12" transform="translate(1025.6 2121.82) rotate(-79.22)"/><rect class="cls-5" x="1652.6" y="419.5" width="12" height="63.67" transform="translate(-56.13 571.14) rotate(-19.22)"/><rect class="cls-5" x="1539.75" y="496.25" width="12" height="63.67" transform="translate(136.25 1353.62) rotate(-49.22)"/><rect class="cls-5" x="1480.4" y="619.14" width="12" height="63.67" transform="translate(568.88 1989.37) rotate(-79.22)"/><path class="cls-5" d="M2596.38,1366l-175.07-107.72,27.27-351.4,256,134Zm-162.54-114.1,155.94,95.95L2690,1046.77,2459.14,925.94Z"/><path class="cls-5" d="M2824.56,1390.64l-204.86-17,105.53-326,285.62,43.79Zm-188.78-27.7,182.46,15.13L2991,1100.54l-257.54-39.48Z"/><path class="cls-5" d="M2630.28,1375.44l-43.49-14.27,106.66-324.92,43.49,14.27Zm-28.34-21.93,20.69,6.79,99.17-302.12-20.69-6.79Z"/><path class="cls-5" d="M2970.75,1091.17,2954.86,1069c-71.28-31.39-130.67-39.22-168-40.25-32.48-.89-54.36,3.06-62.05,4.74L2719,1051l-11.41-3.75,7.8-23.75,3.09-.86c1-.29,25.63-7,68-5.91,38.84,1,100.68,9.09,174.7,42l1.49.66,17.8,24.88Z"/><path class="cls-5" d="M2719,1051l-11.41-3.75,5.75-17.51c-5.19-5.91-20.48-22.06-47.16-40.59C2635.5,967.79,2583,938.9,2507,921.94l-26,8.48L2477.31,919l29.08-9.49,1.6.35c79.1,17.4,133.7,47.53,165.57,69.74,34.79,24.24,50.63,44.23,51.28,45.07l2,2.53Z"/><path class="cls-5" d="M2963.05,1068.35l-8.53-8.44,25.32-25.55c-19.69.25-58.05-2.56-124.16-19.07-51.76-12.93-84.64-7.64-103.1-.91-19.71,7.17-27.55,17.45-27.62,17.55l-9.7-7.06c1.42-2,36.16-48,143.33-21.22,100.81,25.18,135.19,17.65,135.52,17.57l20.37-4.81-14.69,14.86Z"/><rect class="cls-5" x="2695.94" y="1065.9" width="12" height="34.24" transform="translate(830.22 3312.39) rotate(-71.83)"/><rect class="cls-5" x="2687.2" y="1092.52" width="12" height="34.24" transform="translate(798.94 3322.43) rotate(-71.83)"/><rect class="cls-5" x="2616.63" y="1306.27" width="12" height="34.24" transform="matrix(0.32, -0.95, 0.95, 0.32, 532.73, 3387.82)"/><rect class="cls-5" x="2625.55" y="1279.71" width="12" height="34.24" transform="translate(563.98 3378.18) rotate(-71.42)"/><path class="cls-5" d="M2729.39,1041.16a104.86,104.86,0,0,1,12.91-2.8q6.52-1,13.12-1.55a237.58,237.58,0,0,1,26.41-.65l6.6.29c2.2.1,4.39.31,6.58.48,4.39.36,8.76.81,13.12,1.42s8.7,1.35,13,2.07,8.61,1.8,12.87,2.89c-4.41-.1-8.78-.45-13.15-.7l-6.54-.37c-2.18-.13-4.36-.32-6.54-.4s-4.36-.21-6.53-.36-4.35-.2-6.53-.3c-4.35-.24-8.7-.35-13-.52-8.7-.24-17.4-.42-26.11-.36S2738.16,1040.57,2729.39,1041.16Z"/><path class="cls-5" d="M2803.86,1052a231.43,231.43,0,0,1,35.91-.28q17.94,1.1,35.72,3.94c3,.49,5.9,1,8.86,1.55l4.42.81,4.39.92,8.78,1.91c2.92.69,5.82,1.43,8.72,2.18,5.83,1.38,11.54,3.2,17.28,4.87,1.44.43,2.86.89,4.28,1.38l4.25,1.45c2.82,1,5.64,2,8.45,3-5.9-1.11-11.69-2.52-17.54-3.71l-8.75-1.82c-1.46-.29-2.9-.64-4.37-.92l-4.38-.85c-2.92-.56-5.84-1.13-8.75-1.74l-8.78-1.58-4.38-.82-4.4-.72c-2.93-.49-5.86-1-8.79-1.48-11.74-1.86-23.51-3.52-35.32-4.9S2815.8,1052.68,2803.86,1052Z"/><path class="cls-5" d="M2714.46,1033.28c-7.83-5.24-15.49-10.63-23.13-16L2668.45,1001l-22.92-16.15-23.14-16a222.7,222.7,0,0,1,25.05,13c8.06,4.85,16,10,23.61,15.43s15.13,11.17,22.4,17.13A279.35,279.35,0,0,1,2714.46,1033.28Z"/><path class="cls-5" d="M2668.84,1015.07c-11.48-6.46-22.83-13.08-34.16-19.73l-17-10-8.48-5-8.51-4.94c-5.67-3.3-11.32-6.63-17-9.85-2.84-1.63-5.66-3.32-8.52-4.91s-5.72-3.22-8.56-4.86q-17.18-9.62-34.55-19a362.47,362.47,0,0,1,36.2,15.87c5.89,2.94,11.72,6,17.51,9.15,2.91,1.56,5.78,3.17,8.64,4.8l8.58,4.88c5.66,3.37,11.33,6.71,16.93,10.18,2.8,1.73,5.58,3.5,8.35,5.26s5.56,3.54,8.3,5.36C2647.53,999.59,2658.38,1007.05,2668.84,1015.07Z"/><path class="cls-5" d="M615.21,2149.65c-1.91-1.7-47.06-42.42-85.87-111.45-22.81-40.59-38.57-82.5-46.84-124.57A356.24,356.24,0,0,1,486.79,1756l1.5-5.93,5.9,1.62c2.63.72,65,18.32,125,75.8A332.27,332.27,0,0,1,699.45,1948c22.4,57.57,30.75,124.08,24.81,197.68l-12-1c13.06-162-47.7-257-101-308.15-47.46-45.59-97.6-65.59-114.44-71.4-26,110.91,8.63,206.08,42.71,266.83,37.81,67.4,83.14,108.33,83.59,108.73Z"/><path class="cls-5" d="M659.26,2146.68c-.52-2-54-206.51-140.39-330.75l9.85-6.85c45.87,65.93,82.08,153.42,104.38,215.2,24.13,66.83,37.65,118.88,37.78,119.4Z"/><rect class="cls-5" x="631.88" y="2064.04" width="70.94" height="12" transform="translate(-1494.15 1828.48) rotate(-65.75)"/><rect class="cls-5" x="594.53" y="1991.73" width="12" height="76.45" transform="translate(-1484.41 1663.4) rotate(-63.55)"/><rect class="cls-5" x="588.32" y="1946.69" width="70.38" height="12" transform="translate(-1426.03 1918.96) rotate(-71.35)"/><rect class="cls-5" x="547.75" y="1867.6" width="12" height="69.08" transform="translate(-1371.5 1435.01) rotate(-60.13)"/><rect class="cls-5" x="547.93" y="1852.29" width="54.15" height="12" transform="matrix(0.32, -0.95, 0.95, 0.32, -1369.51, 1806.09)"/><rect class="cls-5" x="798.11" y="2081.57" width="205.61" height="12" transform="translate(-1015.05 863.37) rotate(-34.08)"/><path class="cls-5" d="M821.05,2148l-10.57-5.68c.32-.6,32.35-60.89,54.92-153.09,20.41-83.34,37-210.29,1.67-345.35-12.58,7.9-41.56,27.71-73.37,60.4-39,40-90.3,108.17-113.65,205.44l-11.67-2.8a450.43,450.43,0,0,1,50.76-125.11,461.46,461.46,0,0,1,66.29-86.23c43.53-44.65,80.92-65.34,82.49-66.2l6.65-3.64,2,7.31c17.11,62.08,24.83,127.78,23,195.29A781.68,781.68,0,0,1,877,1992.47C854,2086.05,821.38,2147.41,821.05,2148Z"/><path class="cls-5" d="M733.32,2145.53l-12-.7c0-.58,3.53-58.29,19.32-142.44,14.57-77.65,42.89-194.46,95.11-310l10.94,4.94c-51.69,114.36-79.77,230.09-94.22,307C736.82,2087.85,733.35,2145,733.32,2145.53Z"/><rect class="cls-5" x="801.53" y="1751.42" width="56.44" height="12" transform="translate(-943.58 962.24) rotate(-40.57)"/><rect class="cls-5" x="783.91" y="1748.28" width="12" height="64.72" transform="translate(-297.42 164.36) rotate(-10.01)"/><rect class="cls-5" x="772.96" y="1847.23" width="72.9" height="12" transform="translate(-800.67 629.61) rotate(-29.17)"/><rect class="cls-5" x="748.74" y="1823.5" width="12" height="87.53" transform="translate(-505.72 296.42) rotate(-16.74)"/><rect class="cls-5" x="748.68" y="1944.23" width="85.71" height="12" transform="translate(-796.38 568.76) rotate(-26.89)"/><rect class="cls-5" x="721.69" y="1916.15" width="12" height="92.81" transform="translate(-724.8 455.43) rotate(-23.6)"/><rect class="cls-5" x="729.93" y="2051.14" width="84.23" height="12" transform="translate(-862.2 588.42) rotate(-27.48)"/><rect class="cls-5" x="719.48" y="2075.28" width="12" height="28.4" transform="translate(-805.61 493.23) rotate(-24.66)"/><path class="cls-5" d="M910,2150.7l-4.71-11c71.32-30.4,106.56-72.59,123.56-102.63,13-23,17.66-42.65,19.26-52.24-65.95.16-113.83,20.12-142.71,37.15-32.39,19.11-48.58,38.78-48.74,39l-9.33-7.55c.7-.86,17.39-21.26,51.45-41.45,31.25-18.54,83.75-40.35,156.23-39.08l6.21.11-.33,6.2c-.06,1.14-1.67,28.28-21.23,63.14C1021.75,2074.15,984.75,2118.82,910,2150.7Z"/><rect class="cls-5" x="923.79" y="2031.46" width="55.2" height="12" transform="translate(-1295.5 1948.75) rotate(-62.71)"/><rect class="cls-5" x="906.44" y="2076.09" width="57.65" height="12" transform="translate(-121.39 58.9) rotate(-3.39)"/><rect class="cls-5" x="857.07" y="2075.52" width="52.26" height="12" transform="translate(-1376.67 2157.66) rotate(-68.94)"/><rect class="cls-5" x="865.89" y="2105.12" width="12" height="42.72" transform="translate(-1404.05 2446.2) rotate(-75.7)"/><rect class="cls-5" x="2759.17" y="2024.16" width="76.65" height="12" transform="translate(-597.29 2680.51) rotate(-46.81)"/><rect class="cls-5" x="2735.17" y="2051.51" width="12" height="79.66" transform="translate(-688.58 2444.28) rotate(-43.22)"/><rect class="cls-5" x="2772.72" y="2130.22" width="48.6" height="12" transform="translate(-716.46 2341.64) rotate(-40.72)"/><rect class="cls-5" x="2585.41" y="1990.69" width="12" height="63.61" transform="translate(3.72 4049.73) rotate(-76.05)"/><rect class="cls-5" x="2612.48" y="2029.65" width="67.46" height="12" transform="matrix(0.13, -0.99, 0.99, 0.13, 277.55, 4388.46)"/><rect class="cls-5" x="2626.39" y="2071.97" width="12" height="54.88" transform="translate(-148.8 3997.32) rotate(-72.88)"/><rect class="cls-5" x="2657.09" y="2112.93" width="36.16" height="12" transform="translate(-131.58 4060.2) rotate(-73.05)"/><rect class="cls-5" x="2890.95" y="1999.29" width="70.1" height="12" transform="translate(-435.1 871.42) rotate(-15.78)"/><path class="cls-5" d="M2684.39,2153.73c-.75-2.63-18.42-65.33-15.09-157.32a603.66,603.66,0,0,1,26.38-156.94,573.6,573.6,0,0,1,89.13-174.37l4.8-6.41,4.8,6.41c1.27,1.69,31.26,42.34,51.9,123.21,12.08,47.3,18.4,98.62,18.79,152.53.49,67.27-8.31,138.82-26.15,212.64l-11.66-2.82c39.84-164.91,26-286.45,7.4-359.38-15.34-60.09-36.22-97.63-45.32-112.14-83.73,115.34-105,235.81-108.06,317.25-3.33,90.19,14.44,153.4,14.62,154Z"/><rect class="cls-5" x="2594.4" y="1965.45" width="361.6" height="12" transform="translate(679.99 4654.45) rotate(-87.4)"/><rect class="cls-5" x="2754.75" y="1841.99" width="12" height="60.36" transform="translate(-572.66 1995.1) rotate(-36.25)"/><rect class="cls-5" x="2766.02" y="1909.18" width="70.28" height="12" transform="translate(-465.69 2832.85) rotate(-50.05)"/><rect class="cls-5" x="2742.18" y="1954.18" width="12" height="72.51" transform="translate(-615.31 2439.05) rotate(-43.51)"/><path class="cls-5" d="M2631.44,2156.79c-1.41-1.11-35.05-27.72-67.06-75.57a338.48,338.48,0,0,1-42.45-88,293.62,293.62,0,0,1-11.78-116.2l.64-6.46,6.39,1.15c1.05.19,26.1,4.82,58.86,21.38,30.2,15.25,72.85,44,104.59,94.18l-10.15,6.41c-30.16-47.73-70.74-75.12-99.46-89.69a248.66,248.66,0,0,0-49.52-19c-6.13,81.8,25,147.83,52.63,189.25,30.94,46.37,64.38,72.88,64.72,73.14Z"/><path class="cls-5" d="M2669.86,2154c-.47-1.42-48.12-143.27-120.88-219.33l8.68-8.3c39.08,40.86,70.61,99.58,90.18,141.65a865.73,865.73,0,0,1,33.41,82.2Z"/><rect class="cls-5" x="2554.55" y="1935.44" width="12" height="43.67" transform="translate(-102.58 3772.51) rotate(-71.67)"/><rect class="cls-5" x="2591.14" y="1937.9" width="12" height="52.62" transform="matrix(1, -0.08, 0.08, 1, -143.11, 205.16)"/><path class="cls-5" d="M2904.4,2157.28l-5.94-10.42c.31-.18,31.58-18.57,61-69.83,26.77-46.67,57.3-130.67,52.35-267.19a211.53,211.53,0,0,0-54,24.27c-30,18.81-70.59,54.6-93,118.29l-11.31-4c23.69-67.19,66.61-104.93,98.45-124.76,34.57-21.52,63.28-27.06,64.48-27.28l6.79-1.27.31,6.89c2.86,63.64-1.52,121.84-13,173-9.24,41.08-23.08,77.74-41.13,109C2938.29,2137.58,2905.77,2156.5,2904.4,2157.28Z"/><path class="cls-5" d="M2865.07,2152.76l-11.92-1.38c0-.47,5.66-47.56,23.44-107.42,16.45-55.39,47-133.49,99.15-191l8.89,8.06c-50.58,55.77-80.38,132-96.47,186.12C2870.64,2106.06,2865.12,2152.3,2865.07,2152.76Z"/><rect class="cls-5" x="2914.39" y="1885.36" width="47.65" height="12" transform="translate(985.58 4789.21) rotate(-88.8)"/><rect class="cls-5" x="2921.44" y="1926.8" width="60.22" height="12" transform="translate(-453.16 1007.97) rotate(-18.02)"/><rect class="cls-5" x="2894.77" y="1923.32" width="12" height="60.57" transform="translate(-190.72 318.45) rotate(-6.08)"/><rect class="cls-5" x="2866.88" y="1988.84" width="12" height="58.27" transform="translate(-501.26 1048.02) rotate(-19.05)"/><rect class="cls-5" x="2870.99" y="2064.06" width="77.42" height="12" transform="translate(-496.97 999.5) rotate(-17.98)"/><rect class="cls-5" x="2849.46" y="2085.66" width="12" height="35.73" transform="translate(-672.02 1735.63) rotate(-30.42)"/><path class="cls-6" d="M2975.87,2187.17H593.79a48.49,48.49,0,0,1,48.5-48.5H2927.37a48.5,48.5,0,0,1,48.5,48.5Z"/><path class="cls-5" d="M821,1356.4q-31.62,0-63.13-2.1a946.31,946.31,0,0,1-161.32-25,88.24,88.24,0,0,1-52.83-134.12c14.18-21.56,30.29-43,45.87-63.81,32.83-43.77,66.77-89,84.46-137.31l4.78-15c2.52-7.86,6.47-20.55,11-36.31,7.44-25.75,14.1-51.45,19.25-74.33,1.28-5.67,2.47-11.17,3.54-16.35,3-14.44,5.35-27.88,7-40,2.88-20.63,3.71-37.17,2.47-49.14l-.74-7.08,148,9.94-1.68,6.92c-11.76,48.57,9.22,166.59,18.17,217l3.32,18.78c8.66,39.3,27.08,76.91,43.95,108.51.62,1.16,1.22,2.29,1.83,3.4,1.81,3.37,3.64,6.75,5.49,10.1,4.66,8.51,9.48,17.14,14.14,25.49,12.64,22.63,25.71,46,36.86,69.26a88.72,88.72,0,0,1,5.36,14.06c.13.42.26.87.37,1.32.26.92.5,1.88.73,2.84.1.43.21.89.31,1.37s.21,1,.29,1.43c.06.27.11.55.16.82.1.49.19,1,.27,1.44,0,.19.07.39.1.58.1.6.19,1.21.28,1.81,0,.4.11.78.15,1.17s.11.81.16,1.21c.09.8.17,1.55.23,2.31.06.6.1,1.19.14,1.8,0,0,0,.06,0,.09l0,0,.1,2a87.13,87.13,0,0,1-4.35,31.12,88.63,88.63,0,0,1-74.64,60.39A947.51,947.51,0,0,1,821,1356.4ZM734.56,768.78c.49,12-.52,27.08-3,45-1.72,12.34-4.13,26-7.17,40.73-1.08,5.25-2.28,10.83-3.58,16.58-5.21,23.09-11.93,49-19.43,75-4.57,15.9-8.56,28.7-11.1,36.64l-4.9,15.36c-18.28,50-52.79,96-86.17,140.5-15.47,20.63-31.47,42-45.45,63.21a76.25,76.25,0,0,0,45.66,115.87,931.61,931.61,0,0,0,320.49,21.53,76.59,76.59,0,0,0,64.5-52.22,75.25,75.25,0,0,0,3.82-24.86l-.17-.2.09-2.09c0-.51,0-1-.09-1.55s-.06-1-.11-1.42l0-.18q-.07-1-.18-1.92c0-.28-.08-.62-.13-1l0-.29c0-.28-.07-.56-.11-.84-.07-.51-.14-1-.22-1.45l-.1-.59c-.06-.37-.12-.73-.2-1.1l0-.21c0-.19-.06-.38-.1-.57l0-.18c-.06-.35-.14-.71-.22-1.06l0-.11-.24-1.07c-.21-.87-.42-1.71-.65-2.54l-.31-1.1a76.84,76.84,0,0,0-4.66-12.21c-11-22.9-24-46.13-36.52-68.61-4.67-8.37-9.5-17-14.18-25.57-1.86-3.37-3.71-6.78-5.54-10.17l-1.82-3.41c-17.3-32.39-36.17-71-45.14-111.75l-.05-.24-3.33-18.89c-9.44-53.08-28.62-161.07-19.44-215Z"/><path class="cls-5" d="M821.28,1324.15q-30.6,0-61.17-2.05H760A909.68,909.68,0,0,1,604.23,1298a56,56,0,0,1-33.57-85c13.54-20.58,28.56-40.58,44.47-61.77l.37-.49c24.36-32.51,49.55-66.12,68.88-101.79l.68-1.26,1.17-.81c1.16-.81,28.94-19.74,69.47-15.33,14.93,1.66,27,7.64,38.71,13.43,20,9.89,37.19,18.42,65.36,3.89l6.14-3.17,2.28,6.51c14.41,41.13,36.5,80.73,57.87,119l.51.91c12.93,23.12,25.14,45,35.81,67.16h0A56,56,0,0,1,917.73,1319,904.85,904.85,0,0,1,821.28,1324.15ZM694.18,1056c-19.63,35.93-44.76,69.46-69.08,101.91l-.37.5c-15.8,21-30.71,40.89-44.05,61.15a44,44,0,0,0,26.41,66.79,896.82,896.82,0,0,0,153.74,23.82H761a896.62,896.62,0,0,0,155.5-3.05,44,44,0,0,0,35.11-62.66c-10.51-21.86-22.63-43.54-35.47-66.49l-.51-.93c-20.54-36.81-41.74-74.81-56.46-114.63-10.29,4.46-19.44,6.23-27.8,6.23-16.1,0-29.3-6.54-42.24-12.94-11.25-5.57-21.88-10.84-34.69-12.26C722.77,1040,699.44,1052.75,694.18,1056Z"/><path class="cls-5" d="M896.81,779.61c-.67,0-1.34,0-2-.07L699.11,766.4a31,31,0,0,1,4.16-61.8L899,717.74a30.94,30.94,0,0,1,18.36,54.16A31.32,31.32,0,0,1,896.81,779.61Zm-195.6-63.08a19.23,19.23,0,0,0-12.56,4.75,19,19,0,0,0,11.27,33.15L895.6,767.57a19,19,0,1,0,2.54-37.85L702.46,716.57C702,716.54,701.63,716.53,701.21,716.53Z"/><g class="cls-7"><path class="cls-5" d="M821.06,1356.41c-13.55,0-27.1-.29-40.57-.87-7.69-.34-15.3-.75-22.62-1.24a946.31,946.31,0,0,1-161.32-25,88.24,88.24,0,0,1-52.83-134.12c14.12-21.45,30.15-42.83,45.65-63.51l2-2.6c12-16,25.64-34.22,38-52.34,2.58-3.76,5.15-7.62,7.65-11.48,6.39-9.79,12-19,17-28.08a301.89,301.89,0,0,0,20-43.1l4.78-15c18.44-57.58,48.29-167.88,43.3-216.1l-.74-7.08,148,9.94-1.68,6.92c-11.76,48.57,9.22,166.59,18.17,217l3.32,18.78c4.13,18.76,10.76,38.45,20.24,60.2,6.3,14.45,13.83,29.8,23.71,48.31,6.93,13,14.27,26.11,21.36,38.81,12.67,22.69,25.78,46.15,37,69.44a87.1,87.1,0,0,1,8.67,34.29l0,.4v0a88.46,88.46,0,0,1-79,91.13l-1.43.16c-13.11,1.36-26.21,2.46-39,3.27-5.55.35-11.25.66-16.93.91C849.64,1356.09,835.35,1356.41,821.06,1356.41Zm-86.5-587.63c2.68,65-39.33,198.4-44.3,213.93l-4.9,15.35A314.83,314.83,0,0,1,664.48,1043c-5.21,9.37-10.92,18.79-17.46,28.8-2.55,3.93-5.18,7.87-7.8,11.7-12.49,18.33-26.2,36.63-38.3,52.77l-1.95,2.6c-15.39,20.53-31.31,41.76-45.23,62.91a76.25,76.25,0,0,0,45.66,115.87,933.61,933.61,0,0,0,159.28,24.68c7.21.49,14.73.9,22.33,1.23,27.3,1.18,55,1.15,82.28-.1,5.61-.24,11.23-.55,16.7-.9,12.6-.8,25.54-1.88,38.46-3.22l1.42-.16a76.43,76.43,0,0,0,68.27-79.08v-.28a75.27,75.27,0,0,0-7.49-29.35c-11-23-24-46.26-36.62-68.79-7.12-12.74-14.48-25.92-21.44-39-10.06-18.83-17.73-34.46-24.15-49.21-9.82-22.51-16.69-43-21-62.54l-.05-.24-3.33-18.89c-9.44-53.08-28.62-161.07-19.44-215Z"/></g><path class="cls-5" d="M688,1246.41c-.54,0-1.1,0-1.65-.06a23.93,23.93,0,1,1,1.65.06Zm0-36.31a12.17,12.17,0,0,0-12.11,11.34,12.15,12.15,0,1,0,24.24,1.63,12.17,12.17,0,0,0-11.31-12.94C688.53,1210.11,688.25,1210.1,688,1210.1Z"/><path class="cls-5" d="M753,1173.41l-1,0a15.27,15.27,0,1,1,1,0Zm0-18.4a3.16,3.16,0,0,0-2.11.79,3.2,3.2,0,1,0,2.32-.79Z"/><path class="cls-5" d="M815.36,1245.75c-.45,0-.89,0-1.34,0a19.35,19.35,0,1,1,1.34,0Zm0-27.1a7.55,7.55,0,1,0,5,13.23,7.56,7.56,0,0,0,.72-10.65,7.53,7.53,0,0,0-5.18-2.57Z"/><path class="cls-5" d="M841.64,1170.86l-1,0a14,14,0,1,1,10.17-3.44A13.9,13.9,0,0,1,841.64,1170.86Zm0-16.06a2,2,0,0,0-1.33.51,2,2,0,0,0,1.2,3.54,2.08,2.08,0,0,0,1.47-.49,2,2,0,0,0-1.2-3.55Z"/><path class="cls-5" d="M704.52,1126.85l-1,0a15.08,15.08,0,1,1,16-14h0A15.09,15.09,0,0,1,704.52,1126.85Zm0-18.15a3.07,3.07,0,1,0,3.07,3.28h0a3.08,3.08,0,0,0-2.87-3.27Z"/><path class="cls-5" d="M613.38,1241.43c-.24,0-.49,0-.73,0a10.6,10.6,0,1,1,11.29-9.86h0a10.6,10.6,0,0,1-10.56,9.89Zm-1.41-10.7a1.4,1.4,0,0,0,1.3,1.49,1.38,1.38,0,0,0,1-.34,1.44,1.44,0,0,0,.48-1h0Zm1.39-1.3a1.43,1.43,0,0,0-.92.34,1.36,1.36,0,0,0-.47,1l2.79.19a1.4,1.4,0,0,0-1.3-1.49Z"/><path class="cls-5" d="M890.89,1255.44c-.35,0-.69,0-1,0a15.23,15.23,0,1,1,1,0Zm0-18.15a3.09,3.09,0,0,0-2,.76,3.09,3.09,0,0,0-.29,4.34,3.08,3.08,0,0,0,5.39-1.82h0a3.08,3.08,0,0,0-2.87-3.27Z"/><path class="cls-5" d="M824.29,1100.3c-.42,0-.84,0-1.27,0a18.67,18.67,0,1,1,1.27,0Zm0-25.57a6.78,6.78,0,0,0-.44,13.55,6.79,6.79,0,0,0,.91-13.54Z"/></g><g id="Object"><path class="cls-8" d="M2523.32,845.57h-49.74A129.46,129.46,0,0,1,2603,975.07v873.71a129.51,129.51,0,0,1-129.43,129.5h49.74a129.51,129.51,0,0,0,129.43-129.5V975.07A129.46,129.46,0,0,0,2523.32,845.57Z"/><path class="cls-9" d="M1471.74,2075.34a31.72,31.72,0,0,0,0,63.44h616.62a31.72,31.72,0,0,0,0-63.44H1471.74Z"/><path class="cls-8" d="M2140.57,2075.34h-52.21a31.72,31.72,0,0,1,0,63.44h52.21a31.72,31.72,0,0,0,0-63.44Z"/><polygon class="cls-10" points="1978.9 1978.28 2029.61 2075.34 2071.84 2075.34 2021.06 1978.28 1978.9 1978.28"/><polygon class="cls-8" points="1647.97 1978.28 1698.69 2075.34 2029.61 2075.34 1978.9 1978.28 1647.97 1978.28"/><path class="cls-9" d="M1071.11,845.57H2473.58A129.46,129.46,0,0,1,2603,975.07v873.71a129.51,129.51,0,0,1-129.43,129.5H1071.11a129.51,129.51,0,0,1-129.43-129.5V975.07A129.46,129.46,0,0,1,1071.11,845.57Zm.07,984.74h1402.4a90.39,90.39,0,0,0,90.27-90.33V975.07a90.39,90.39,0,0,0-90.27-90.33H1071.18a90.45,90.45,0,0,0-90.34,90.33V1740A90.45,90.45,0,0,0,1071.18,1830.31Z"/><path class="cls-11" d="M2563.83,975.06V1740a90.26,90.26,0,0,1-51.88,81.72,89.18,89.18,0,0,1-38.39,8.63H1071.17A90.46,90.46,0,0,1,980.82,1740V975.06a90.39,90.39,0,0,1,90.35-90.35H2473.56a90.3,90.3,0,0,1,90.27,90.35Z"/><g class="cls-12"><rect class="cls-13" x="1554.8" y="1443.19" width="116.28" height="96.06" rx="36.12" transform="translate(1811.92 3678.85) rotate(-137.95)"/><path class="cls-13" d="M1654.92,1483.06h0c9-1.49,17,15.79,15.52,6.78l-7.7-61.07a16.66,16.66,0,0,0-19.11-13.66h0a16.67,16.67,0,0,0-13.66,19.11l5.85,35.18A16.65,16.65,0,0,0,1654.92,1483.06Z"/><path class="cls-13" d="M1633.11,1467.1h0a16.65,16.65,0,0,0-1.2-23.45l-26.49-23.89A16.66,16.66,0,0,0,1582,1421h0a16.66,16.66,0,0,0,1.21,23.45l26.49,23.89A16.64,16.64,0,0,0,1633.11,1467.1Z"/><path class="cls-13" d="M1602.54,1467.36h0a16.66,16.66,0,0,0-1.21-23.45L1574.85,1420a16.65,16.65,0,0,0-23.46,1.21h0a16.66,16.66,0,0,0,1.21,23.45l26.49,23.89A16.65,16.65,0,0,0,1602.54,1467.36Z"/><path class="cls-13" d="M1595,1488.48h0a16.65,16.65,0,0,0-1.21-23.45l-26.49-23.89a16.65,16.65,0,0,0-23.45,1.2h0a16.65,16.65,0,0,0,1.21,23.46l26.48,23.89A16.66,16.66,0,0,0,1595,1488.48Z"/><path class="cls-13" d="M1596.26,1517.48h0a16.66,16.66,0,0,0-1.21-23.45l-26.49-23.89a16.66,16.66,0,0,0-23.46,1.21h0a16.66,16.66,0,0,0,1.21,23.45l26.49,23.89A16.65,16.65,0,0,0,1596.26,1517.48Z"/><path class="cls-14" d="M1893.53,1478.69c72-99.89,180.59-119,193.88-121-94.44,16.43-166.88,97-170.77,195.09-.14,2.79-.21,5.61-.21,8.44v123.51C1757.68,1773.84,1610.6,1559,1610.6,1559l73.37-68.1C1743.35,1555.53,1816.68,1585.22,1893.53,1478.69Z"/><path class="cls-15" d="M2494.78,1726c0,128.55-32.1,233.26-132.16,329.7-3.45-1-13.64-3.27-39.44-28.17-16.23-15.61-27.39-51-27.39-51s5.24-8.61,12.68-23.32l-36.27,0-224.75.21-128,.14a18.55,18.55,0,0,1-18.57-19.74l15.54-249V1561.26c0-2.83.06-5.65.2-8.44,3.9-98.13,76.33-178.66,170.78-195.09l1.34-.21a207.54,207.54,0,0,1,34.24-2.82h73.16a206.48,206.48,0,0,1,34.13,2.82,203.77,203.77,0,0,1,43.78,12.4C2393.48,1412.29,2494.74,1560.91,2494.78,1726Z"/><path class="cls-16" d="M2240.8,1953.54H2016v-.17l37.3-556.34s23.18-39.8,34.85-39.8l76.54-2.53a206.69,206.69,0,0,1,34.14,2.82l2.85,40.65,39.06,555Z"/><path class="cls-15" d="M2055.37,1364.64,2016,2022.56l-123.5-26.36,46.07-325.1s17-103.93,32.57-161.6S2055.37,1364.64,2055.37,1364.64Z"/><path class="cls-15" d="M2198.85,1357.52l42,664.71,147.55-16.62s21.9-107.47,42.41-208.37,1.82-277.08-49.38-326.38S2198.85,1357.52,2198.85,1357.52Z"/><path class="cls-14" d="M2262.71,1557.82s23.36,51.74,40.83,132.07-7.75,286.56-7.75,286.56l12.69-24.63s57.4-117.84,48.93-190.32S2320.57,1624.84,2262.71,1557.82Z"/><rect class="cls-17" x="1597.01" y="1416.41" width="3.44" height="54.04" transform="translate(-552.4 1553.29) rotate(-45)"/><rect class="cls-17" x="1565.43" y="1431.04" width="3.44" height="52.92" transform="translate(-571.6 1535.04) rotate(-45)"/><rect class="cls-17" x="1563.42" y="1462.77" width="3.44" height="45.47" transform="translate(-591.99 1541.82) rotate(-45)"/><path class="cls-13" d="M2201.93,1406.33c-17.92,8.64-44.95,12.87-74,12.87-30.31,0-57.42-5.93-75.33-15.23l2.45-36.27.2-3a.25.25,0,0,1,.14,0h-.14a21.21,21.21,0,0,0,4-2.14c3.62-2.48,8.3-7.27,7.89-15.26-.18-3.82-3.79-14.84-3.79-14.84l-4-15.43-.07-.18-14.54-56L2190.5,1248s-12.47,67-10.51,91.87c1.31,16.46,19.38,14.88,19.38,14.88Z"/><path class="cls-17" d="M2169.52,1291.34s-11,58.83-92.59,73.26c-5.16.93-15.22,2.38-21.9,3.1l.2-3a.25.25,0,0,1,.14,0h-.14a21.21,21.21,0,0,0,4-2.14c3.62-2.48,8.3-7.27,7.89-15.26-.18-3.82-4.1-16-4.1-16S2141.48,1338.8,2169.52,1291.34Z"/><path class="cls-13" d="M2218.48,1202.35c-2.43,67.79-45,130.46-112.8,128s-127.46,0-132.68-136.84c-3.62-95,59.36-120.77,127.15-118.33A122.81,122.81,0,0,1,2218.48,1202.35Z"/><path class="cls-18" d="M2136.2,1154.64s-1.8,42.54.4,69.39,4,54.19-13.25,67.4c0,0,33-9.72,24-57.36s-6.34-50.92-.69-66.23S2136.2,1154.64,2136.2,1154.64Z"/><path class="cls-18" d="M1990.42,1149.72c5.35,4,13.62,7.2,26.27,8.55,44.11,4.66,124.23-31.39,124.23-31.39s-7.86,23.86-5.2,67c0,0,14.2-27.36,34.43-1.16,18.1,23.53-7.69,51.36-23.17,45.29,0,0-7.16,53.33-33.8,58.15s-31.8-20.12-71.69-30.19-53.35,10.57-53.35,10.57c34.51,81.4,150,51.6,150,51.6s14.35,14.43,45.14,11.27,36.91-69.54,36.91-69.54c20.82,7.42,44.41-33.49,48-95.89s-54.18-64.28-54.18-64.28,6.91-43.7-60.79-68.13c-65.93-23.78-89.37,1.85-90.55,3.2.59-2,13.36-44.67-21.21-45.31-35.42-.65-31,35.64-31,35.64-39.51-35.78-96,13-85.8,53.92s57.12,36.67,57.12,36.67a22.08,22.08,0,0,0,8.63,24Z"/><polygon class="cls-19" points="1419 1078.3 1454.25 1230.81 1882.57 1230.81 1962.57 1295.83 1872.35 1078.3 1419 1078.3"/><path class="cls-8" d="M1834.55,1130H1534.17a7.72,7.72,0,1,1,0-15.43h300.38a7.72,7.72,0,1,1,0,15.43Z"/><path class="cls-8" d="M1825.53,1158.9h-337.2a7.72,7.72,0,1,1,0-15.44h337.2a7.72,7.72,0,0,1,0,15.44Z"/><path class="cls-8" d="M1817.05,1186h-337.2a7.72,7.72,0,0,1,0-15.44h337.2a7.72,7.72,0,0,1,0,15.44Z"/><path class="cls-20" d="M1369.4,1129.23a30.18,30.18,0,0,1,.79,60.36l-40.37.53-162,2.12-34.62.45a30.39,30.39,0,0,1-30.62-29.83,30,30,0,0,1,8.59-21.37,30.4,30.4,0,0,1,21.24-9.16l53.05-.69,136-1.78Z"/><path class="cls-21" d="M1536.47,1765.92v-.05c-.1-.79-.21-1.59-.33-2.39s-.19-1.31-.32-2q-.21-1.29-.45-2.55c-.1-.47-.19-.93-.3-1.4s-.18-.87-.28-1.3c-.15-.67-.3-1.34-.48-2a5.73,5.73,0,0,0-.14-.56c-.14-.55-.27-1.08-.44-1.63-.08-.32-.16-.64-.26-.95q-.21-.77-.45-1.56c-.16-.51-.31-1-.47-1.5-.35-1.06-.7-2.12-1.09-3.18-.16-.46-.34-.94-.52-1.41a101.05,101.05,0,0,0-7.31-15.33c-21.33-36.59-46.53-72.54-70.41-108.88-2.56-3.88-5.1-7.79-7.62-11.68-.84-1.29-1.68-2.6-2.52-3.91l0,0c-26.73-41.64-50.75-84-64.34-128.43l-4.83-18.56c-16-61.23-54-204.1-44.06-266.54l-162,2.12c3,16,3.29,37.26,1.89,61.19-.91,15.58-2.53,32.27-4.65,49.3-.83,6.69-1.74,13.44-2.7,20.18-4.58,32.15-10.48,64.41-16.07,91.84-3.52,17.37-6.94,32.81-9.78,45l-4.35,18.68c-24.86,89.66-91.67,171.76-138.24,256.63-33,60.12,3.71,134.93,71.44,145.84a1132.74,1132.74,0,0,0,390.71-5.11c40.77-7.66,69.6-38.39,78.38-74.57A98.65,98.65,0,0,0,1536.47,1765.92Z"/><path class="cls-20" d="M1517.33,1785.84a79.78,79.78,0,0,1-6.92,25.33,5.51,5.51,0,0,1-.31.65,79,79,0,0,1-57.68,44.83c-5,.93-10,1.84-14.93,2.69q-14.27,2.51-28.61,4.61-9.08,1.35-18.2,2.53-10.2,1.32-20.42,2.48c-3.11.34-6.21.69-9.32,1q-10.44,1.08-20.93,2-35.43,3-70.94,3.75c-2.83.06-5.65.11-8.49.15q-12.25.17-24.52.05a1118,1118,0,0,1-167.64-14.21A79.91,79.91,0,0,1,1011,1744.48c10.7-19.51,22.75-39.27,35-58.75,4.27-6.84,8.57-13.64,12.83-20.38.15-.26.32-.51.48-.77,9.44-14.95,19-30,28.18-45.26,2.89-4.76,5.76-9.55,8.56-14.34q1.92-3.26,3.8-6.52,4.23-7.28,8.27-14.62,3.72-6.72,7.26-13.47,5.79-11,11.07-22.16a401.37,401.37,0,0,0,24.54-64.56l4.54-19.48c.29-1.24.73-3.16,1.28-5.72,1.34-6,3.35-15.5,5.76-27.47,3.41-16.89,7.59-38.79,11.75-62.93,1.08-6.4,2.18-13,3.26-19.63q.72-4.41,1.41-8.91c1-6.55,2-13.2,3-19.87.86-6.05,1.72-12.14,2.52-18.22,1.3-10,2.5-19.91,3.53-29.68,3.19-30,4.87-58.47,3.66-80.85l119.28-1.55c-1,61.68,20.64,174.47,36.55,241.89,2.32,9.89,4.54,18.82,6.53,26.46l4.67,18,1.17,4.48c2.76,9,5.93,18,9.41,26.83a463.41,463.41,0,0,0,19.32,42.2q5.88,11.41,12.29,22.62c11.68,20.53,24.46,40.61,37.49,60.38,6,9.14,12.08,18.2,18.11,27.22,17.22,25.75,35,52.38,50.33,78.6A78.63,78.63,0,0,1,1517.33,1785.84Z"/><path class="cls-17" d="M1489.94,1747.81a60.45,60.45,0,0,1-41.15,89.67,1092.3,1092.3,0,0,1-188.37,18.85h-.09a1090.91,1090.91,0,0,1-188.8-13.91,60.44,60.44,0,0,1-43.48-88.57c14.29-26,30.53-51.7,47.63-78.74,26.56-42.09,53.7-85.06,73.78-130.48,0,0,30.3-24.87,77.42-23.54s75.67,44.17,131.1,9.7c21.7,49,52.44,94.88,82.28,139.55C1458.07,1696.93,1475,1722.16,1489.94,1747.81Z"/><path class="cls-22" d="M1369.4,1129.23a30.18,30.18,0,0,1,.79,60.36l-40.37.53-162,2.12-34.62.45a30.39,30.39,0,0,1-30.62-29.83,30,30,0,0,1,8.59-21.37,30.4,30.4,0,0,1,21.24-9.16l53.05-.69,136-1.78Z"/><circle class="cls-16" cx="1163.96" cy="1750.26" r="21.94" transform="translate(-687.49 755.11) rotate(-28.12)"/><path class="cls-16" d="M1247.24,1666.66a11.13,11.13,0,1,1-11.27-11A11.14,11.14,0,0,1,1247.24,1666.66Z"/><circle class="cls-16" cx="1317.77" cy="1742.69" r="16.38" transform="translate(-773.85 2374.02) rotate(-69.7)"/><circle class="cls-16" cx="1342.73" cy="1656.57" r="9.7" transform="translate(-120.4 105.31) rotate(-4.3)"/><path class="cls-16" d="M1184.14,1615.41a11,11,0,1,1-11.11-10.83A11,11,0,0,1,1184.14,1615.41Z"/><circle class="cls-16" cx="1074.87" cy="1767.81" r="5.56" transform="translate(-944.29 1316.74) rotate(-46.11)"/><circle class="cls-16" cx="1410.15" cy="1752.45" r="10.97" transform="translate(-106.09 90.94) rotate(-3.56)"/><path class="cls-16" d="M1330,1567.29a15.45,15.45,0,1,1-15.65-15.24A15.46,15.46,0,0,1,1330,1567.29Z"/><g class="cls-7"><path class="cls-3" d="M1510.41,1811.17a5.51,5.51,0,0,1-.31.65l-353.38-353.37c3.21-14.53,10.42-49.18,17.51-90.4l264.11,264.11c6,9.14,12.08,18.2,18.11,27.22,17.22,25.75,35,52.38,50.33,78.6A78.64,78.64,0,0,1,1510.41,1811.17Z"/><path class="cls-3" d="M1400.85,1571.78l-223.36-223.36c2.47-15.3,4.85-31.17,7-47l174.22,174.23,1.17,4.48C1369.54,1511.89,1384.06,1542.3,1400.85,1571.78Z"/><path class="cls-3" d="M1340,1871.93q-39.66,3.39-79.43,3.9-12.25.17-24.52.05l-190.15-190.15c4.44-7.1,8.9-14.16,13.31-21.15,9.44-14.95,19-30,28.18-45.26Z"/><path class="cls-3" d="M1408.88,1864q-23.88,3.54-47.94,6l-265-265c6.73-11.43,13.23-23,19.33-34.61Z"/><path class="cls-3" d="M1534.4,1801.24a66.89,66.89,0,0,0-5.54-3.87l-11.53-11.53a78.63,78.63,0,0,0-10.55-47.86c-15.3-26.22-33.11-52.85-50.33-78.6-6-9-12.1-18.08-18.11-27.22-13-19.77-25.81-39.85-37.49-60.38q-6.39-11.21-12.29-22.62l54.49,54.49,0,0c.84,1.31,1.68,2.62,2.52,3.91q3.78,5.87,7.62,11.68c23.88,36.34,49.08,72.29,70.41,108.88a101.05,101.05,0,0,1,7.31,15.33c.18.47.36,1,.52,1.41.39,1.06.74,2.12,1.09,3.18.16.5.31,1,.47,1.5s.31,1.05.45,1.56c.1.31.18.63.26.95.17.55.3,1.08.44,1.63a5.73,5.73,0,0,1,.14.56c.18.66.33,1.33.48,2,.1.43.19.86.28,1.3s.2.93.3,1.4q.24,1.26.45,2.55c.13.64.22,1.29.32,2s.23,1.6.33,2.39v.05A98.65,98.65,0,0,1,1534.4,1801.24Z"/><path class="cls-3" d="M1085.48,1584.18l14.28,14.28q-1.87,3.27-3.8,6.52c-2.8,4.79-5.67,9.58-8.56,14.34-9.21,15.25-18.74,30.31-28.18,45.26-.16.26-.33.51-.48.77l-14.14-14.15C1058.63,1629,1072.65,1606.69,1085.48,1584.18Z"/><path class="cls-3" d="M1126.36,1548.21q-5.27,11.14-11.07,22.16-3.54,6.77-7.26,13.47l-14.37-14.37c6.47-11.89,12.53-23.86,18-35.92Z"/><path class="cls-3" d="M1178.9,1339.51q-.69,4.5-1.41,8.91c-1.08,6.68-2.18,13.23-3.26,19.63-4.16,24.14-8.34,46-11.75,62.93l-16.24-16.23c5.59-27.43,11.49-59.69,16.07-91.84Z"/><path class="cls-3" d="M1188,1271.74c-1,9.77-2.23,19.72-3.53,29.68-.8,6.08-1.66,12.17-2.52,18.22L1165,1302.73c2.12-17,3.74-33.72,4.65-49.3Z"/><path class="cls-3" d="M1409.51,1547.24,1369.24,1507c-3.48-8.83-6.65-17.78-9.41-26.83l-1.17-4.48-4.67-18c-2-7.64-4.21-16.57-6.53-26.46l26.76,26.76,4.49,17.23C1386.22,1499.79,1396.92,1523.72,1409.51,1547.24Z"/><path class="cls-3" d="M1454.29,1876.14q-23.1,4.3-46.3,7.65l-17.31-17.31q9.12-1.18,18.2-2.53,14.34-2.1,28.61-4.61Z"/><path class="cls-3" d="M1370.26,1869l17.56,17.56q-49.72,6.27-99.77,8.13l-19-19q35.48-.73,70.94-3.75,10.48-.89,20.93-2C1364.05,1869.65,1367.15,1869.3,1370.26,1869Z"/></g></g><path class="cls-8" d="M2563.83,975.06v18.1h-1583v-18.1a90.28,90.28,0,0,1,90.36-90.32l1402.4-.23C2526.8,884.51,2563.83,928,2563.83,975.06Z"/><circle class="cls-23" cx="1072.77" cy="939.53" r="20.57"/><circle class="cls-23" cx="1179.05" cy="939.53" r="20.57"/><circle class="cls-23" cx="1279.91" cy="939.53" r="20.57"/><g class="cls-7"><polygon class="cls-3" points="1650.51 1830.29 1380.49 1830.29 1075.93 884.72 1345.96 884.72 1650.51 1830.29"/><polygon class="cls-3" points="1804.16 1830.29 1723.55 1830.29 1419 884.72 1499.54 884.72 1804.16 1830.29"/><polygon class="cls-3" points="2441.72 1830.29 2171.7 1830.29 1867.14 884.72 2137.17 884.72 2441.72 1830.29"/><path class="cls-3" d="M2563.84,1732.58V1740a90.29,90.29,0,0,1-51.89,81.72l-301.75-937h80.55Z"/></g><path class="cls-13" d="M2486.52,2073.1s9.21,30-.36,66.9l-32-2.67-91.08-7v0a190,190,0,0,0,2.76-31.59,213.43,213.43,0,0,0-2.76-31.62l89.76,4.26Z"/><path class="cls-24" d="M2496.12,2059s17.82,41.46,0,95.13l-135.51-8.94c-2.91-.21-5.19-3.66-5.1-7.77s2.52-7.23,5.37-7.23h.24l1.92.15,91.08,7,32,2.67c9.57-36.87.36-66.9.36-66.9l-33.72-1.71-89.76-4.26-2.19-.12c-2.88-.15-5.16-3.45-5.16-7.5s2.4-7.47,5.31-7.47h.24Z"/><polygon class="cls-25" points="2900.25 2046.04 2887.32 2046.04 2496.12 2059.03 2361.24 2052.04 2754.9 2044.22 2900.25 2046.04"/><path class="cls-25" d="M2900.25,2046s18.84,55.62,2.1,96.9h-15l-391.2,11.22c17.82-53.67,0-95.13,0-95.13l391.2-13Z"/><path class="cls-26" d="M2488.59,2092.15c-14.11.66-28.16.21-42.19-.51s-28-1.94-42-4.17c14.11-.66,28.16-.21,42.19.52S2474.64,2089.93,2488.59,2092.15Z"/><path class="cls-26" d="M2416.62,2114.68a132.87,132.87,0,0,1-23.36-.38,130.84,130.84,0,0,1-23-4,149.21,149.21,0,0,1,46.36,4.4Z"/><path class="cls-27" d="M2427,2126.41c-5.83-9-4.74-29.59,2-38l35.55,1.87c-6.74,8.37-7.83,28.93-2,38a132,132,0,0,1-21-10.38A146.72,146.72,0,0,1,2427,2126.41Z"/><path class="cls-27" d="M2529.16,2153.1c16.76-41.29-2-95.16-2-95.16h36.57s18.81,53.87,2.06,95.16Z"/><path class="cls-27" d="M2836.43,2144.73c16.76-41.29-2-95.15-2-95.15H2871s18.81,53.86,2.05,95.15Z"/><path class="cls-13" d="M2740.63,1977.17s-12.93,30,.48,66.9l50.91-2.79,127.68-7v0a137.6,137.6,0,0,1-3.87-31.59c0-15.66,3.87-31.62,3.87-31.62v0l-125.85,4.29Z"/><path class="cls-15" d="M2922.37,2034.17l-2.67.15-127.68,7-50.91,2.79c-13.41-36.87-.48-66.9-.48-66.9l53.22-1.83,125.85-4.29,3-.09a7.49,7.49,0,0,0-.21-15h-.33l-189,7s-25,41.46,0,95.13l189.93-8.94a7.5,7.5,0,0,0-.39-15Z"/><polygon class="cls-14" points="2922.19 1955.99 2404.18 1949.45 2407.03 1949.57 2733.16 1962.98 2922.19 1955.99"/><path class="cls-14" d="M2726.84,1962.72,2407,1949.57a28.22,28.22,0,0,0-29.31,28l-.21,39.84a28.18,28.18,0,0,0,27.12,28.35l328.53,12.3c-25-53.67,0-95.13,0-95.13Z"/><path class="cls-26" d="M2741.58,2002.89c9.87.7,19.71.8,29.54.7s19.64-.48,29.44-1,19.6-1.27,29.38-2.29,19.54-2.18,29.28-4c-9.88-.7-19.72-.81-29.54-.7s-19.64.48-29.45,1-19.59,1.27-29.37,2.29S2751.32,2001.11,2741.58,2002.89Z"/><path class="cls-26" d="M2845.9,2018.62a290.81,290.81,0,0,0,65-4.39,253.3,253.3,0,0,0-32.61.37A258.78,258.78,0,0,0,2845.9,2018.62Z"/><path class="cls-25" d="M2828.39,2061.66c10-14.69,9-49.56-1.85-63.64-19.59.57-38.46,3-58.06,3.56,10.81,14.08,11.1,47.1,1.12,61.79a217.66,217.66,0,0,0,35-16.33C2813.22,2052.81,2821,2057.87,2828.39,2061.66Z"/><path class="cls-10" d="M2551.41,1866.17l9.26.84a41.78,41.78,0,0,0-38.73,44.66l.91,12.77a41.78,41.78,0,0,0,33.63,38l-148.81-12a44.91,44.91,0,0,1-40.32-49.34l.71-6.86a44.86,44.86,0,0,1,48.64-40.12h0Z"/><polygon class="cls-10" points="2909.71 1859.07 2560.67 1867.01 2551.41 1866.17 2416.73 1854.18 2416.7 1854.18 2415.09 1854.04 2909.71 1859.07"/><path class="cls-8" d="M2899.67,1873.13,2561.42,1882a26.7,26.7,0,0,0-19.22,10.62,28.13,28.13,0,0,0-5.23,19l.87,11.77a27,27,0,0,0,26.24,24.91c.78,0,1.59,0,2.37-.09l.36,0,333.32-7.56,8.28-.2a6.91,6.91,0,0,1,7,7l0,1.23a6.88,6.88,0,0,1-6.71,6.76l-341.17,7.73a41.81,41.81,0,0,1-44.69-38.69l-.91-12.77a41.78,41.78,0,0,1,38.73-44.66l349-7.94a6.89,6.89,0,0,1,.35,13.78Z"/><path class="cls-13" d="M2900.13,1940.59l-333.32,7.56-.36,0c-.78,0-1.59.1-2.37.09a27,27,0,0,1-26.24-24.91l-.87-11.77a28.13,28.13,0,0,1,5.23-19,26.7,26.7,0,0,1,19.22-10.62l338.25-8.86c-.13.6-4.41,20.73-4.61,33.66S2900.13,1940.59,2900.13,1940.59Z"/><path class="cls-26" d="M2566.28,1901.54c9.76-1.63,19.55-2.67,29.34-3.5s19.6-1.38,29.41-1.82,19.62-.6,29.45-.51,19.67.31,29.53,1.17c-9.77,1.64-19.55,2.68-29.34,3.51s-19.6,1.38-29.41,1.82-19.63.59-29.45.49S2576.14,1902.39,2566.28,1901.54Z"/><path class="cls-26" d="M2647,1929c9.76-1.63,19.55-2.66,29.34-3.49s19.59-1.38,29.4-1.83,19.63-.6,29.46-.51,19.66.32,29.52,1.18c-9.76,1.63-19.54,2.67-29.34,3.5s-19.59,1.38-29.4,1.82-19.63.59-29.46.5S2656.83,1929.82,2647,1929Z"/><path class="cls-15" d="M2660.27,1979.89c13.56-18.14,14.43-63.05,1.46-81.62-25-.4-47.23,2.24-72.24,1.84,13,18.57,9.31,60.44-4.25,78.59a277.89,277.89,0,0,0,45.6-18.81C2641.44,1967.74,2651.06,1974.64,2660.27,1979.89Z"/><path class="cls-26" d="M2733.4,1911.42c13.44-1.63,26.89-2.66,40.35-3.49s26.93-1.38,40.39-1.83,27-.59,40.44-.5,27,.32,40.48,1.18c-13.44,1.63-26.89,2.67-40.35,3.5s-26.92,1.38-40.39,1.82-27,.58-40.44.49S2746.91,1912.27,2733.4,1911.42Z"/><path class="cls-13" d="M2427.3,1572.62h438.12s-7.65,31.71-7.65,66.18c0,33.48,7.65,66.18,7.65,66.18H2427.3a28.14,28.14,0,0,1-28.14-28.14v-76A28.15,28.15,0,0,1,2427.3,1572.62Z"/><path class="cls-28" d="M2871.33,1554.62a9,9,0,0,1,9,9,9,9,0,0,1-9,9h-444a28.15,28.15,0,0,0-28.14,28.17v76A28.14,28.14,0,0,0,2427.3,1705h444a9,9,0,0,1,0,18h-444a46.14,46.14,0,0,1-46.14-46.14v-76.08a46.14,46.14,0,0,1,46.14-46.14Z"/><path class="cls-26" d="M2456.2,1598.24q38.91-1.74,77.83-2.33c25.94-.48,51.89-.61,77.83-.67s51.89.18,77.83.66,51.89,1.18,77.83,2.34q-38.91,1.76-77.83,2.34c-25.94.48-51.89.61-77.83.66s-51.89-.19-77.83-.67S2482.14,1599.4,2456.2,1598.24Z"/><path class="cls-26" d="M2440,1638.81c9.81-1.25,19.61-1.89,29.41-2.34s19.61-.6,29.41-.66,19.61.18,29.41.66,19.6,1.09,29.41,2.34c-9.81,1.25-19.61,1.9-29.41,2.34s-19.61.6-29.41.65-19.61-.18-29.41-.66S2449.78,1640.05,2440,1638.81Z"/><path class="cls-26" d="M2515,1680.38c9.8-1.24,19.6-1.89,29.4-2.33s19.61-.6,29.41-.66,19.61.18,29.41.65,19.61,1.09,29.41,2.34c-9.8,1.25-19.61,1.91-29.41,2.34s-19.6.61-29.41.66-19.6-.19-29.41-.66S2524.82,1681.63,2515,1680.38Z"/><path class="cls-26" d="M2576.91,1656.05q34-1.74,68-2.34c22.65-.48,45.31-.6,68-.66s45.31.18,68,.65,45.3,1.18,68,2.35q-34,1.74-68,2.34c-22.65.47-45.31.6-68,.65s-45.31-.18-68-.66S2599.56,1657.2,2576.91,1656.05Z"/><path class="cls-10" d="M2531.24,1718.92a85.58,85.58,0,0,1,0-80.11h-75a85.58,85.58,0,0,0,0,80.11c8.9-6.82,18.77-14,29.64-21.36C2500,1704.91,2515.12,1712.1,2531.24,1718.92Z"/><rect class="cls-17" x="2767.2" y="1723.06" width="27.89" height="132.39"/><rect class="cls-16" x="2795.09" y="1723.06" width="46.44" height="132.39"/><rect class="cls-16" x="2444.94" y="1723.06" width="322.26" height="132.39"/><rect class="cls-17" x="2417.05" y="1723.06" width="27.89" height="132.39"/><rect class="cls-16" x="2370.61" y="1723.06" width="46.44" height="132.39"/><path class="cls-10" d="M2370.32,1761.05s-35.64,17.18-41.37,63.63l15.28-12.72,5.41,12.72s3.5-39.45,20.68-54.73Z"/><ellipse class="cls-17" cx="2606.92" cy="1789.26" rx="126.43" ry="29.91"/><path class="cls-18" d="M2496.36,1080.66c-21.28,8.52-32.68,44.11-34.23,89.75s-27.48,105.57,1,121,76.24-21.51,113.1,10.94,90.58,35.43,90.58,35.43,33.5-26.56,20.32-102.49-63.37-49.44-85.8-80.87S2568.29,1051.88,2496.36,1080.66Z"/><path class="cls-25" d="M2508.5,1226.93s74.41-15.6,72.05,8.74c-1,10.37-33.2,56.92-33.94,60.79-.5,2.82-1.15,5.71-1.73,8.56s-1.23,5.7-2,8.59-1.39,5.75-2.18,8.64l-2.53,8.73c-.39,1.44-.88,2.92-1.4,4.4l-1.51,4.43-1.52,4.42-1.78,4.54-1.83,4.51c-.31.75-.59,1.48-.93,2.25l-1.1,2.34-2.21,4.65-1.12,2.32-.56,1.15-.94,1.75c-1.36,2.39-2.71,4.81-4.26,7s-3.25,4.37-5,6.45-3.63,3.82-5.5,5.64-3.84,3.26-5.81,4.8a84.29,84.29,0,0,1-23.42,12.1c-1.86.58-3.79,1.29-5.6,1.72l-5.45,1.36c-3.54.71-7.1,1.35-10.48,1.73a139.6,139.6,0,0,1-19.71,1.05c-12.67-.14-14.26-59.21-5.83-61.35a96.09,96.09,0,0,0,11.7-3.7c.85-.36,1.79-.66,2.55-1.06s1.58-.75,2.37-1.1l2.08-1.14a21,21,0,0,0,1.81-1.16c2.21-1.55,3.38-6.82,3.38-6.82l.75-2.71.39-1.35c.12-.47.22-1,.33-1.51l.67-3,.71-3,.6-3.25c.38-2.19.84-4.23,1.18-6.52.78-4.47,2.32-20,4.25-40.54,2.07-22,18.07-38.93,43.46-44.46Z"/><path class="cls-27" d="M2649.42,1403.8c1.28-16.6,11.54-48.88,12.39-74.53,1.79-53.41.46-104.92-85.26-105.38a1.76,1.76,0,0,0-.33-.07c-5.67-1-9.86-1.38-11.84-1.55l-1.27-.1c-40-1.14-68.77,3-72.23,32.13-2.11,17.75-16.75,25.51-19.42,44.62-3.48,24.85,3.54,29,9.91,49.69,5,16.38-39.29,127.13-39.29,127.13l212.94,4.1S2646.38,1443.34,2649.42,1403.8Z"/><path class="cls-29" d="M2564.38,1222.27c2,.17,6.17.59,11.84,1.55A101.87,101.87,0,0,0,2564.38,1222.27Z"/><path class="cls-13" d="M2574.38,1175.7l-55.25,9.5,7.33,20.92,0,.07,2,5.77,1.93,5.54.4,1.15,6.65.75-4.39,4.27s2.15,8.66,19.55,8.66,23.57-8.5,23.57-8.5Z"/><path class="cls-13" d="M2576.15,1158.8c1.22,26-13.06,47.38-38,54.8-19.06,5.69-33.78-2.29-56-50.4-10.91-23.58,18.83-48,44.79-49.19A47,47,0,0,1,2576.15,1158.8Z"/><path class="cls-17" d="M2535,1226.74a6.91,6.91,0,0,1-1.89-3.07c-.72-2.23-3.91-8.54-3.91-8.54s29.83-3.51,36.78-23.44C2566,1191.69,2571.27,1216.24,2535,1226.74Z"/><path class="cls-25" d="M2616.86,1233.09c62.9-.76,43.18,149.34-3.13,169.29-57.06,24.58-91.48,16.22-91.48,16.22l-.44-34.34c.32-.15,67.63-10.78,69.25-32.08,3.56-46.64-31-115.1,25.8-119.09Z"/><path class="cls-30" d="M2453.16,1432.67l83.47-.06a7,7,0,0,0-4.51,1.58,4.9,4.9,0,0,0-1.87,3.78c0,3,2.88,5.37,6.39,5.37l-171.65.11c-3.51,0-6.38-2.41-6.39-5.37a5,5,0,0,1,1.87-3.78,7.05,7.05,0,0,1,4.51-1.58Z"/><path class="cls-31" d="M2630.21,1432.55a5.36,5.36,0,0,1,3.8,9.15,5.45,5.45,0,0,1-3.8,1.57l-94.65.07a5.39,5.39,0,0,1-5.38-5.37,5.27,5.27,0,0,1,1.58-3.78,5.33,5.33,0,0,1,3.79-1.58l92.67-.06Z"/><path class="cls-31" d="M2541.21,1429.8a7.59,7.59,0,0,1-5.87,2.81h-6.76a7.57,7.57,0,0,0,7.39-9.14l-22.49-107.16a7.66,7.66,0,0,0-7.44-6h6.77a7.63,7.63,0,0,1,7.43,6l22.49,107.16A7.49,7.49,0,0,1,2541.21,1429.8Z"/><path class="cls-32" d="M2534.45,1429.8a7.56,7.56,0,0,1-5.87,2.81l-162.9.11a7.64,7.64,0,0,1-7.44-6l-22.49-107.16a7.6,7.6,0,0,1,7.41-9.14l162.88-.11a7.66,7.66,0,0,1,7.44,6L2536,1423.47A7.56,7.56,0,0,1,2534.45,1429.8Z"/><path class="cls-3" d="M2444.7,1371.5a8.84,8.84,0,1,1-8.84-8.83A8.83,8.83,0,0,1,2444.7,1371.5Z"/><path class="cls-18" d="M2576.92,1147.74s-58.61,19.5-90.05-11.94c0,0,20,22.71,33.82,20.29,0,0-19.62,6.08-33.82-16.23,0,0-3.94,20.52-14.15,24.71,0,0-9.32-57.16,39.93-64.26S2574.54,1125.19,2576.92,1147.74Z"/><path class="cls-13" d="M2234.73,1626.26s-14.45,15.62-20.16,12.47l59.18,38.93,12.61-17.43Z"/><path class="cls-18" d="M2193.6,1631.45l16.62,5.77a14.43,14.43,0,0,0,10.67-.49l7.93-4.76,16.49,26.64,35.56,9.21-3.5,4.84-18.71-5.27,15.44,10.16a5.6,5.6,0,0,1,1.6,7.75l-4.68,7.11a6,6,0,0,1-8.25,1.7l-17.68-11.63v-9.41l-12.7,1-55.61-36.58a2,2,0,0,1-.15-3.13h0A17.76,17.76,0,0,1,2193.6,1631.45Z"/><path class="cls-13" d="M2352.94,1723s-3.5,21-10,21.5h70.83l1-21.5Z"/><path class="cls-18" d="M2321.42,1749.91l17.06-4.32a14.4,14.4,0,0,0,8.65-6.26l4-8.34,28.43,13.19,34.76-11.85-.26,6-18.53,5.88H2414a5.6,5.6,0,0,1,5.59,5.6v8.51a6,6,0,0,1-6,6h-21.16l-5.19-7.86-10,7.86h-66.56a1.94,1.94,0,0,1-1.84-2.53h0A17.74,17.74,0,0,1,2321.42,1749.91Z"/><path class="cls-10" d="M2382.53,1560.59,2348.05,1723h70l56.69-171.59s-20.32-9.27-49-21.44S2389.82,1542.56,2382.53,1560.59Z"/><path class="cls-8" d="M2653.6,1517.07h0c-8.35,48.3-32.44,60.11-96.19,52.74-79.92-9.24-124.27-37-124.27-37l-138.76,128-59.34-42s35.86-45.62,82.74-102c49.61-59.63,60.21-92.9,153.75-70.49,57.73,13.84,102.14,14.63,143.94,24.17h0c24.12,5.5,39.55,9.34,39.55,9.34A142.85,142.85,0,0,1,2653.6,1517.07Z"/><path class="cls-33" d="M2653.6,1517.07h0c-49.48,3.15-38.13-46.57-38.13-46.57h0c24.12,5.5,39.55,9.34,39.55,9.34A142.85,142.85,0,0,1,2653.6,1517.07Z"/><path class="cls-33" d="M2239.65,1612.29l61.47,44.23a6.51,6.51,0,0,1,1.47,9.06h0a6.51,6.51,0,0,1-9.06,1.48l-61.46-44.23a6.51,6.51,0,0,1-1.48-9.06h0A6.52,6.52,0,0,1,2239.65,1612.29Z"/><path class="cls-33" d="M2346.34,1710h75.72a6.51,6.51,0,0,1,6.49,6.49h0a6.51,6.51,0,0,1-6.49,6.49h-75.72a6.51,6.51,0,0,1-6.49-6.49h0A6.51,6.51,0,0,1,2346.34,1710Z"/><path class="cls-21" d="M1838.84,1748.93v302c0,21.37-17.67,38.76-39.39,38.76s-39.39-17.39-39.39-38.76V1749.63a15.44,15.44,0,0,0,1.81.1h4.68l-.39,301.25c0,18.07,14.92,32.76,33.29,32.76s33.28-14.69,33.28-32.76l.84-301.25h.27A16,16,0,0,0,1838.84,1748.93Z"/><path class="cls-34" d="M1838.84,1748.93v302a38.08,38.08,0,0,1-6,20.62,39.55,39.55,0,0,1-33.34,18.14c-21.72,0-39.39-17.39-39.39-38.76V1749.63a15.44,15.44,0,0,0,1.81.1h4.68v4.88l0,83.9,0,7.61,0,35.86-.1,61.68,0,17.93,0,7.61,0,35.85-.08,45.93c0,18.07,14.92,32.76,33.29,32.76l1.09,0,.66,0,.37,0c.8-.05,1.6-.13,2.38-.24l.52-.06c.84-.13,1.68-.29,2.5-.47l.8-.2c.2,0,.39-.1.59-.15.64-.17,1.27-.37,1.9-.58l.56-.19.16-.07.69-.25.19-.08.69-.28.79-.35,0,0c.2-.09.39-.17.58-.27a32.51,32.51,0,0,0,4.82-2.82l.89-.65.57-.43.57-.46.24-.2.58-.5c.23-.19.45-.4.67-.61l.65-.62c.18-.17.36-.36.54-.54l.19-.2c.18-.18.36-.37.53-.56l.51-.57.67-.8c.09-.1.17-.21.25-.31s.27-.33.39-.5l.2-.26.4-.54c.13-.19.27-.37.39-.56s.26-.37.38-.57.25-.38.37-.57.41-.66.61-1v0c.11-.18.22-.37.32-.56a30.79,30.79,0,0,0,1.83-3.9c.1-.25.19-.51.28-.76s.2-.56.29-.84.18-.56.27-.84l.24-.85c.2-.74.37-1.49.52-2.25q.1-.51.18-1c0-.14,0-.28.07-.42l.09-.72c.06-.39.1-.79.13-1.2,0-.17,0-.35,0-.53s0-.43,0-.65,0-.2,0-.3,0-.26,0-.39v-.1c0-.28,0-.56,0-.85l.06-15.29,0-7.59.06-17.89.22-61.57.13-35.79,0-7.59.06-17.89.25-137.64h.27A16,16,0,0,0,1838.84,1748.93Z"/><path class="cls-21" d="M1833.57,1749.73l-.84,301.25c0,18.07-14.88,32.76-33.28,32.76s-33.29-14.69-33.29-32.76l.39-301.25Z"/><path class="cls-20" d="M1833.57,1749.73l-.84,301.25c0,18.07-14.88,32.76-33.28,32.76s-33.29-14.69-33.29-32.76l.39-301.25Z"/><path class="cls-35" d="M1833.84,1749.73h-72a16.12,16.12,0,0,1-16.08-16.08h0a16.13,16.13,0,0,1,16.08-16.08h72a16.13,16.13,0,0,1,16.08,16.08h0A16.13,16.13,0,0,1,1833.84,1749.73Z"/><path class="cls-36" d="M1849.92,1733.65a16.09,16.09,0,0,1-16.08,16.08h-72a15.44,15.44,0,0,1-1.81-.1,16.08,16.08,0,0,1,1.81-32.06h72A16.13,16.13,0,0,1,1849.92,1733.65Z"/><path class="cls-37" d="M1826.63,1958.48V2051a27.19,27.19,0,0,1-54.37,0V1941c9.13,1,19.1,4.12,27.19,11.68C1808.24,1961,1818.15,1961.09,1826.63,1958.48Z"/><path class="cls-38" d="M1832.73,1749.73V2051a32.28,32.28,0,0,1-7.34,20.52,33.42,33.42,0,0,1-25.94,12.24c-18.37,0-33.29-14.69-33.29-32.76V1749.73Z"/><path class="cls-39" d="M1786.66,1963.59a3.1,3.1,0,1,1-3.1-3A3.08,3.08,0,0,1,1786.66,1963.59Z"/><ellipse class="cls-39" cx="1807.35" cy="1978.62" rx="4.45" ry="4.38"/><path class="cls-39" d="M1798.06,1993.18a3,3,0,1,1-3-3A3,3,0,0,1,1798.06,1993.18Z"/><path class="cls-39" d="M1821.46,2008.31a2.51,2.51,0,1,1-2.51-2.47A2.48,2.48,0,0,1,1821.46,2008.31Z"/><path class="cls-39" d="M1799.45,2019.36a3.69,3.69,0,1,1-3.69-3.63A3.66,3.66,0,0,1,1799.45,2019.36Z"/><ellipse class="cls-39" cx="1814.12" cy="2035.14" rx="2.32" ry="2.28"/><path class="cls-39" d="M1780.47,2017.63a1.94,1.94,0,1,1-1.94-1.9A1.92,1.92,0,0,1,1780.47,2017.63Z"/><path class="cls-39" d="M1780.47,2000.13a1.94,1.94,0,1,1-1.94-1.91A1.92,1.92,0,0,1,1780.47,2000.13Z"/><ellipse class="cls-39" cx="1790.04" cy="2047.61" rx="3.38" ry="3.33"/><path class="cls-39" d="M1809.86,2056.83a2.71,2.71,0,1,1-2.71-2.66A2.68,2.68,0,0,1,1809.86,2056.83Z"/><ellipse class="cls-39" cx="1795.74" cy="2064.45" rx="2.32" ry="2.28"/><g class="cls-7"><polygon class="cls-3" points="1832.73 1919.66 1832.73 1955.57 1766.16 1889 1766.16 1853.08 1832.73 1919.66"/><polygon class="cls-3" points="1832.73 1894.08 1832.73 1912.04 1766.16 1845.46 1766.16 1827.5 1832.73 1894.08"/><path class="cls-3" d="M1832.73,2042.94v8a32.29,32.29,0,0,1-7.34,20.52l-59.23-59.23v-35.91Z"/><polygon class="cls-3" points="1832.73 2017.36 1832.73 2035.32 1766.16 1968.74 1766.16 1950.78 1832.73 2017.36"/></g><g class="cls-7"><polygon class="cls-3" points="1766.16 1820.21 1766.16 1838.16 1760.06 1832.06 1760.06 1820.81 1760.06 1815.61 1766.16 1820.21"/><polygon class="cls-3" points="1760.06 1839.68 1766.16 1845.78 1766.16 1881.7 1760.06 1875.6 1760.06 1839.68"/><polygon class="cls-3" points="1833.22 1912.85 1838.84 1918.46 1838.84 1954.38 1833.1 1948.64 1832.73 1948.27 1832.73 1912.36 1833.22 1912.85"/><polygon class="cls-3" points="1838.84 1892.89 1838.84 1910.84 1833.26 1905.26 1832.73 1904.74 1832.73 1886.79 1838.84 1892.89"/><polygon class="cls-3" points="1766.16 1943.48 1766.16 1961.44 1760.06 1955.34 1760.06 1937.38 1766.16 1943.48"/><polygon class="cls-3" points="1760.06 1962.96 1766.16 1969.06 1766.16 2004.98 1760.06 1998.88 1760.06 1962.96"/><polygon class="cls-3" points="1838.84 2016.16 1838.84 2034.12 1832.73 2028.02 1832.73 2010.06 1832.88 2010.21 1838.84 2016.16"/><path class="cls-3" d="M1832.73,2035.63l6.11,6.11V2051a38.08,38.08,0,0,1-6,20.62l-4.41-4.41a32.21,32.21,0,0,0,4.35-16.21Z"/></g><path class="cls-21" d="M2247.24,1748.93v302c0,21.37-17.67,38.76-39.39,38.76s-39.39-17.39-39.39-38.76V1749.63a15.32,15.32,0,0,0,1.81.1H2175l-.39,301.25c0,18.07,14.92,32.76,33.29,32.76s33.28-14.69,33.28-32.76l.84-301.25h.27A16,16,0,0,0,2247.24,1748.93Z"/><path class="cls-40" d="M2247.24,1748.93v302a38.08,38.08,0,0,1-6,20.62,39.55,39.55,0,0,1-33.34,18.14c-21.72,0-39.39-17.39-39.39-38.76V1749.63a15.32,15.32,0,0,0,1.81.1H2175v4.88l0,83.9,0,7.61,0,35.86-.11,61.68,0,17.93v7.61l-.05,35.85-.08,45.93c0,18.07,14.92,32.76,33.29,32.76l1.09,0,.66,0,.37,0c.8-.05,1.6-.13,2.38-.24l.52-.06c.84-.13,1.67-.29,2.5-.47l.8-.2c.2,0,.39-.1.59-.15.64-.17,1.27-.37,1.9-.58l.56-.19.16-.07.69-.25.19-.08.69-.28.79-.35,0,0c.2-.09.39-.17.58-.27a33.56,33.56,0,0,0,4.82-2.82l.89-.65.57-.43.57-.46.23-.2.59-.5c.22-.19.45-.4.67-.61l.65-.62c.18-.17.36-.36.54-.54l.19-.2c.18-.18.36-.37.52-.56l.52-.57.67-.8.25-.31c.13-.17.27-.33.39-.5l.2-.26.4-.54c.13-.19.27-.37.39-.56s.26-.37.38-.57.25-.38.37-.57.41-.66.61-1c0,0,0,0,0,0,.11-.18.21-.37.32-.56a30.79,30.79,0,0,0,1.83-3.9c.1-.25.19-.51.28-.76s.2-.56.29-.84.18-.56.27-.84l.24-.85c.2-.74.37-1.49.52-2.25q.11-.51.18-1a3,3,0,0,0,.06-.42c0-.24.07-.48.1-.72.06-.39.1-.79.13-1.2,0-.17,0-.35,0-.53s0-.43,0-.65,0-.2,0-.3,0-.26,0-.39v-.1c0-.28,0-.56,0-.85l.06-15.29,0-7.59.06-17.89.22-61.57.12-35.79,0-7.59.07-17.89.25-137.64h.27A16,16,0,0,0,2247.24,1748.93Z"/><path class="cls-21" d="M2242,1749.73l-.84,301.25c0,18.07-14.88,32.76-33.28,32.76s-33.29-14.69-33.29-32.76l.39-301.25Z"/><path class="cls-20" d="M2242,1749.73l-.84,301.25c0,18.07-14.88,32.76-33.28,32.76s-33.29-14.69-33.29-32.76l.39-301.25Z"/><path class="cls-35" d="M2242.24,1749.73h-72a16.12,16.12,0,0,1-16.08-16.08h0a16.13,16.13,0,0,1,16.08-16.08h72a16.13,16.13,0,0,1,16.08,16.08h0A16.13,16.13,0,0,1,2242.24,1749.73Z"/><path class="cls-41" d="M2258.32,1733.65a16.09,16.09,0,0,1-16.08,16.08h-72a15.32,15.32,0,0,1-1.81-.1,16.08,16.08,0,0,1,1.81-32.06h72A16.13,16.13,0,0,1,2258.32,1733.65Z"/><path class="cls-42" d="M2235,1958.48V2051a27.19,27.19,0,0,1-54.37,0V1941c9.12,1,19.1,4.12,27.19,11.68C2216.63,1961,2226.55,1961.09,2235,1958.48Z"/><path class="cls-43" d="M2241.13,1749.73V2051a32.21,32.21,0,0,1-4.35,16.21,33.09,33.09,0,0,1-3,4.31,33.42,33.42,0,0,1-25.94,12.24c-18.37,0-33.29-14.69-33.29-32.76V1749.73Z"/><path class="cls-44" d="M2195.05,1963.59a3.09,3.09,0,1,1-3.09-3A3.07,3.07,0,0,1,2195.05,1963.59Z"/><ellipse class="cls-44" cx="2215.75" cy="1978.62" rx="4.45" ry="4.38"/><ellipse class="cls-44" cx="2203.47" cy="1993.18" rx="3" ry="2.95"/><ellipse class="cls-44" cx="2227.35" cy="2008.31" rx="2.51" ry="2.47"/><path class="cls-44" d="M2207.85,2019.36a3.69,3.69,0,1,1-3.69-3.63A3.66,3.66,0,0,1,2207.85,2019.36Z"/><path class="cls-44" d="M2224.83,2035.14a2.32,2.32,0,1,1-2.32-2.28A2.29,2.29,0,0,1,2224.83,2035.14Z"/><ellipse class="cls-44" cx="2186.93" cy="2017.63" rx="1.93" ry="1.9"/><path class="cls-44" d="M2188.87,2000.13a1.94,1.94,0,1,1-1.94-1.91A1.92,1.92,0,0,1,2188.87,2000.13Z"/><path class="cls-44" d="M2201.82,2047.61a3.39,3.39,0,1,1-3.38-3.34A3.36,3.36,0,0,1,2201.82,2047.61Z"/><path class="cls-44" d="M2218.26,2056.83a2.71,2.71,0,1,1-2.71-2.66A2.68,2.68,0,0,1,2218.26,2056.83Z"/><ellipse class="cls-44" cx="2204.14" cy="2064.45" rx="2.32" ry="2.28"/><g class="cls-7"><polygon class="cls-3" points="2241.13 1919.66 2241.13 1955.57 2174.56 1889 2174.56 1853.08 2241.13 1919.66"/><polygon class="cls-3" points="2241.13 1894.08 2241.13 1912.04 2174.56 1845.46 2174.56 1827.5 2241.13 1894.08"/><path class="cls-3" d="M2241.13,2042.94v8a32.29,32.29,0,0,1-7.34,20.52l-59.23-59.23v-35.91Z"/><polygon class="cls-3" points="2241.13 2017.36 2241.13 2035.32 2174.56 1968.74 2174.56 1950.78 2241.13 2017.36"/></g><g class="cls-7"><polygon class="cls-3" points="2174.56 1820.21 2174.56 1838.16 2168.46 1832.06 2168.46 1820.81 2168.46 1815.61 2174.56 1820.21"/><polygon class="cls-3" points="2168.46 1839.68 2174.56 1845.78 2174.56 1881.7 2168.46 1875.6 2168.46 1839.68"/><polygon class="cls-3" points="2241.62 1912.85 2247.24 1918.46 2247.24 1954.38 2241.5 1948.64 2241.13 1948.27 2241.13 1912.36 2241.62 1912.85"/><polygon class="cls-3" points="2247.24 1892.89 2247.24 1910.84 2241.66 1905.26 2241.13 1904.74 2241.13 1886.79 2247.24 1892.89"/><polygon class="cls-3" points="2174.56 1943.48 2174.56 1961.44 2168.46 1955.34 2168.46 1937.38 2174.56 1943.48"/><polygon class="cls-3" points="2168.46 1962.96 2174.56 1969.06 2174.56 2004.98 2168.46 1998.88 2168.46 1962.96"/><polygon class="cls-3" points="2247.24 2016.16 2247.24 2034.12 2241.13 2028.02 2241.13 2010.06 2241.28 2010.21 2247.24 2016.16"/><path class="cls-3" d="M2241.13,2035.63l6.11,6.11V2051a38.08,38.08,0,0,1-6,20.62l-4.41-4.41a32.21,32.21,0,0,0,4.35-16.21Z"/></g><path class="cls-21" d="M2048.27,1689.7v354.42c0,25.08-20.73,45.48-46.22,45.48s-46.22-20.4-46.22-45.48v-353.6a18.7,18.7,0,0,0,2.12.12h5.5l-.46,353.48c0,21.21,17.51,38.43,39.06,38.43s39.06-17.22,39.06-38.43l1-353.48h.3A18.65,18.65,0,0,0,2048.27,1689.7Z"/><path class="cls-45" d="M2048.27,1689.7v354.42a44.71,44.71,0,0,1-7.09,24.2,46.42,46.42,0,0,1-39.13,21.28c-25.48,0-46.22-20.4-46.22-45.48v-353.6a18.7,18.7,0,0,0,2.12.12h5.5v5.72l0,98.45v8.92l-.07,42.08-.12,72.38,0,21v8.92l-.07,42.07-.09,53.9c0,21.21,17.51,38.44,39.06,38.44.43,0,.86,0,1.28,0l.78,0,.43,0c1,0,1.88-.14,2.8-.27l.6-.08c1-.15,2-.33,2.94-.55l.94-.23.69-.18c.75-.2,1.49-.43,2.23-.68l.65-.22.2-.08.8-.3.23-.09c.27-.1.54-.22.81-.33s.62-.26.92-.41l.05,0,.69-.31a39.78,39.78,0,0,0,5.65-3.31l1-.77c.23-.16.45-.33.67-.51s.45-.35.67-.54l.28-.23c.22-.19.46-.38.68-.59s.53-.46.79-.71.51-.48.76-.73.43-.42.64-.64l.22-.22c.21-.22.42-.44.61-.67s.41-.44.61-.67.53-.61.78-.93c.1-.12.21-.24.3-.37s.31-.38.46-.58l.23-.3c.16-.22.32-.43.47-.65l.46-.65.45-.66.43-.68c.24-.38.48-.77.71-1.17l0,0c.13-.22.25-.44.37-.66a36,36,0,0,0,2.14-4.58c.12-.3.23-.59.34-.89s.23-.65.34-1,.21-.66.31-1,.19-.67.28-1c.24-.87.44-1.75.61-2.64.09-.4.16-.79.22-1.19,0-.17,0-.33.07-.5s.08-.56.12-.84c.06-.46.11-.93.14-1.41,0-.21,0-.41.06-.63s0-.5,0-.75,0-.24,0-.35,0-.31,0-.47a.49.49,0,0,0,0-.12c0-.33,0-.66,0-1l.07-17.94,0-8.91.07-21,.26-72.25.15-42,0-8.91.08-21,.3-161.5h.3A18.65,18.65,0,0,0,2048.27,1689.7Z"/><path class="cls-21" d="M2042.1,1690.64l-1,353.48c0,21.21-17.47,38.43-39.06,38.43s-39.06-17.22-39.06-38.43l.46-353.48Z"/><path class="cls-20" d="M2042.1,1690.64l-1,353.48c0,21.21-17.47,38.43-39.06,38.43s-39.06-17.22-39.06-38.43l.46-353.48Z"/><path class="cls-35" d="M2042.4,1690.64H1958a18.92,18.92,0,0,1-18.87-18.87h0A18.92,18.92,0,0,1,1958,1652.9h84.44a18.92,18.92,0,0,1,18.87,18.87h0A18.92,18.92,0,0,1,2042.4,1690.64Z"/><path class="cls-46" d="M2061.27,1671.77a18.88,18.88,0,0,1-18.87,18.87H1958a18.7,18.7,0,0,1-2.12-.12,18.87,18.87,0,0,1,2.12-37.62h84.45A18.92,18.92,0,0,1,2061.27,1671.77Z"/><path class="cls-15" d="M2034,1935.58v108.54c0,17.3-14.32,31.39-31.9,31.39s-31.9-14.09-31.9-31.39v-129c10.71,1.16,22.42,4.82,31.9,13.7C2012.36,1938.5,2024,1938.64,2034,1935.58Z"/><path class="cls-47" d="M2041.11,1690.64v353.48a37.81,37.81,0,0,1-5.11,19,38.65,38.65,0,0,1-3.51,5.06,39.23,39.23,0,0,1-30.44,14.36c-21.55,0-39.06-17.23-39.06-38.44V1690.64Z"/><path class="cls-28" d="M1987,1941.58a3.63,3.63,0,1,1-3.63-3.57A3.6,3.6,0,0,1,1987,1941.58Z"/><path class="cls-28" d="M2016.54,1959.22a5.22,5.22,0,1,1-5.22-5.14A5.18,5.18,0,0,1,2016.54,1959.22Z"/><path class="cls-28" d="M2000.43,1976.3a3.52,3.52,0,1,1-3.52-3.46A3.49,3.49,0,0,1,2000.43,1976.3Z"/><path class="cls-28" d="M2027.89,1994.05a3,3,0,1,1-3-2.9A2.93,2.93,0,0,1,2027.89,1994.05Z"/><path class="cls-28" d="M2002.05,2007a4.33,4.33,0,1,1-4.33-4.26A4.3,4.3,0,0,1,2002.05,2007Z"/><path class="cls-28" d="M2022,2025.53a2.73,2.73,0,1,1-2.73-2.68A2.7,2.7,0,0,1,2022,2025.53Z"/><path class="cls-28" d="M1979.78,2005a2.27,2.27,0,1,1-2.27-2.23A2.25,2.25,0,0,1,1979.78,2005Z"/><path class="cls-28" d="M1979.78,1984.45a2.27,2.27,0,1,1-2.27-2.23A2.25,2.25,0,0,1,1979.78,1984.45Z"/><ellipse class="cls-28" cx="1991.01" cy="2040.16" rx="3.97" ry="3.91"/><path class="cls-28" d="M2014.27,2051a3.18,3.18,0,1,1-3.18-3.13A3.14,3.14,0,0,1,2014.27,2051Z"/><ellipse class="cls-28" cx="1997.71" cy="2059.92" rx="2.72" ry="2.68"/><g class="cls-7"><polygon class="cls-3" points="2041.11 1890.02 2041.11 1932.17 1962.99 1854.05 1962.99 1811.91 2041.11 1890.02"/><polygon class="cls-3" points="2041.11 1860.01 2041.11 1881.09 1962.99 1802.97 1962.99 1781.89 2041.11 1860.01"/><path class="cls-3" d="M2041.11,2034.68v9.44a37.89,37.89,0,0,1-8.62,24.08l-69.5-69.5v-42.14Z"/><polygon class="cls-3" points="2041.11 2004.67 2041.11 2025.74 1962.99 1947.62 1962.99 1926.55 2041.11 2004.67"/></g><g class="cls-7"><polygon class="cls-3" points="1962.99 1773.33 1962.99 1794.4 1955.83 1787.24 1955.83 1774.04 1955.83 1767.94 1962.99 1773.33"/><polygon class="cls-3" points="1955.83 1796.18 1962.99 1803.34 1962.99 1845.48 1955.83 1838.32 1955.83 1796.18"/><polygon class="cls-3" points="2041.69 1882.04 2048.28 1888.62 2048.28 1930.77 2041.54 1924.03 2041.11 1923.6 2041.11 1881.46 2041.69 1882.04"/><polygon class="cls-3" points="2048.28 1858.62 2048.28 1879.68 2041.72 1873.13 2041.11 1872.52 2041.11 1851.45 2048.28 1858.62"/><polygon class="cls-3" points="1962.99 1917.98 1962.99 1939.06 1955.83 1931.9 1955.83 1910.83 1962.99 1917.98"/><polygon class="cls-3" points="1955.83 1940.84 1962.99 1948 1962.99 1990.14 1955.83 1982.98 1955.83 1940.84"/><polygon class="cls-3" points="2048.28 2003.27 2048.28 2024.34 2041.11 2017.17 2041.11 1996.11 2041.28 1996.28 2048.28 2003.27"/><path class="cls-3" d="M2041.11,2026.11l7.16,7.17v10.84a44.71,44.71,0,0,1-7.09,24.2l-5.18-5.18a37.81,37.81,0,0,0,5.11-19Z"/></g><rect class="cls-23" x="1650.9" y="2102.57" width="698.56" height="36.68"/><path class="cls-23" d="M1711.64,1864.3v275.11H1675V1901a36.68,36.68,0,0,1,36.68-36.68Z"/><path class="cls-23" d="M2169.51,1983.51h275.11a0,0,0,0,1,0,0v0a36.68,36.68,0,0,1-36.68,36.68H2169.51a0,0,0,0,1,0,0v-36.68A0,0,0,0,1,2169.51,1983.51Z" transform="translate(305.21 4308.91) rotate(-90)"/><rect class="cls-23" x="1711.64" y="1904.73" width="577.08" height="23.82"/><rect class="cls-23" x="1711.64" y="1970.27" width="577.08" height="23.82"/><path class="cls-48" d="M1061.81,2112c-.52.25-12.36,6.33-8.26,19H1081a16.57,16.57,0,0,0-8-12.31C1068.59,2116.09,1065,2113.94,1061.81,2112Z"/><path class="cls-48" d="M939.14,2094.19v19.36c25.16-.31,22.4-22.63,22.4-22.63-10.07-.65-16.08-1.5-17.15-1.67l-.18,0h-.09A5,5,0,0,0,939.14,2094.19Z"/><path class="cls-49" d="M1032.26,2093.42l-6.64-4.2s-2.84.39-7.79.87c-7.23.69-19,1.53-33.06,1.53-1.24,0-2.47,0-3.66,0-7.6-.06-14.17-.33-19.57-.67,0,0,2.76,22.32-22.4,22.63V2131h114.41c-4.1-12.64,7.74-18.72,8.26-19-6.67-4.07-11.61-7.2-18.36-11.48C1040.26,2098.48,1036.64,2096.18,1032.26,2093.42Z"/><path class="cls-13" d="M754.58,2075v14.2a.84.84,0,0,1,.18,0c1.94.21,19.43,2.1,36.72,2.34,1.19,0,2.42,0,3.66,0,14.81,0,27.06-.93,34.16-1.63,4.11-.44,6.4-.77,6.4-.77V2075H754.58Z"/><path class="cls-8" d="M749.75,2067.2l11.52-380,1.43,0a45.75,45.75,0,0,0,9.13-.9,46.76,46.76,0,0,0,37.64-45.87h84l-17.82,149.67-33,277.07-.93,7.8H749.51Z"/><path class="cls-13" d="M944.21,2075v14.2a.84.84,0,0,1,.18,0c1.94.21,19.43,2.1,36.72,2.34,1.19,0,2.42,0,3.66,0,14.07,0,25.83-.84,33.06-1.53,4.8-.48,7.5-.87,7.5-.87V2075H944.21Z"/><path class="cls-10" d="M893.51,1640.48h33.84c0,21.69,13.68,39.93,37.94,45.23a70.87,70.87,0,0,0,15,1.54l50.1,379.95,1,7.82H937.37l-1.69-7.82-60-277Z"/><path class="cls-50" d="M939.14,2131v.63a6.28,6.28,0,0,0,6.27,6.29h130.76a5,5,0,0,0,4.95-5,18.44,18.44,0,0,0-.12-2H939.14Z"/><polygon class="cls-18" points="893.51 1640.48 887.76 1845.88 875.69 1790.15 893.51 1640.48"/><path class="cls-18" d="M762.7,1640.48l-1.43,46.73,1.43,0a45.75,45.75,0,0,0,9.13-.9,46.76,46.76,0,0,0,37.64-45.87Z"/><path class="cls-18" d="M974.12,1640.48H927.35c0,21.69,13.68,39.93,37.94,45.23a70.87,70.87,0,0,0,15,1.54Z"/><polygon class="cls-51" points="974.12 1640.48 761.98 1663.84 762.7 1640.48 974.12 1640.48"/><path class="cls-49" d="M753.88,2086.26l-9.35,32.4h.32c5.49-9.07,16.48-15.25,29.13-15.25h42.79c12.66,0,23.66,6.18,29.15,15.25h0l-9.15-32.4Z"/><path class="cls-50" d="M741.08,2133.92v1.86a5,5,0,0,0,5,5h98.5a5,5,0,0,0,5-5v-1.86Z"/><path class="cls-48" d="M741.08,2131.86v2.06h108.6v-2.06a25.35,25.35,0,0,0-3.75-13.2h0c-5.49-9.07-16.49-15.25-29.15-15.25H774c-12.65,0-23.64,6.18-29.13,15.25A25.09,25.09,0,0,0,741.08,2131.86Z"/><path class="cls-3" d="M819.8,2090.87H772.39a.75.75,0,1,1,0-1.5H819.8a.75.75,0,1,1,0,1.5Z"/><path class="cls-3" d="M819.8,2095.39H772.39a.75.75,0,1,1,0-1.5H819.8a.75.75,0,0,1,0,1.5Z"/><path class="cls-3" d="M819.8,2099.9H772.39a.75.75,0,1,1,0-1.5H819.8a.75.75,0,0,1,0,1.5Z"/><path class="cls-3" d="M849.68,2134.67H741.08a.75.75,0,1,1,0-1.5h108.6a.75.75,0,0,1,0,1.5Z"/><path class="cls-3" d="M1021.56,2106.21a.77.77,0,0,1-.52-.21l-1.07-1a.72.72,0,0,1-.23-.53.74.74,0,0,1,.21-.53l11.24-11.52a.75.75,0,0,1,1.06,0l1.07,1a.75.75,0,0,1,.23.52.81.81,0,0,1-.21.54L1022.1,2106A.75.75,0,0,1,1021.56,2106.21Z"/><path class="cls-3" d="M1027.19,2110a.73.73,0,0,1-.52-.21l-1.08-1a.8.8,0,0,1-.23-.53.75.75,0,0,1,.22-.53l11.23-11.52a.75.75,0,0,1,1.06,0l1.08,1a.75.75,0,0,1,.22.53.7.7,0,0,1-.21.53l-11.23,11.52A.78.78,0,0,1,1027.19,2110Z"/><path class="cls-3" d="M1032.8,2113.27a.75.75,0,0,1-.53-.22l-1.07-1.05a.75.75,0,0,1,0-1.06l11.19-11.46a1.21,1.21,0,0,1,.59-.26.85.85,0,0,1,.57.22l1,1.11a.75.75,0,0,1,0,1L1033.33,2113a.8.8,0,0,1-.52.23Z"/><path class="cls-52" d="M965.61,1688.68h.11a.75.75,0,0,0,.63-.85l-.32-2.23a.75.75,0,0,0-1.49.21l.33,2.23A.74.74,0,0,0,965.61,1688.68Z"/><path class="cls-52" d="M1019.91,2068.47l-.64-4.42a.75.75,0,1,1,1.49-.21l.64,4.42a.75.75,0,0,1-.64.85h-.11A.76.76,0,0,1,1019.91,2068.47Zm-1.28-8.84-.64-4.43a.75.75,0,0,1,.64-.85.77.77,0,0,1,.85.64l.64,4.42a.75.75,0,0,1-.64.85h-.11A.76.76,0,0,1,1018.63,2059.63Zm-1.28-8.85-.64-4.43a.75.75,0,0,1,.64-.85.77.77,0,0,1,.85.64l.64,4.42a.75.75,0,0,1-.64.85h-.11A.76.76,0,0,1,1017.35,2050.78Zm-1.28-8.85-.64-4.42a.75.75,0,0,1,.64-.85.77.77,0,0,1,.85.63l.64,4.43a.75.75,0,0,1-.64.85h-.11A.76.76,0,0,1,1016.07,2041.93Zm-1.28-8.85-.64-4.42a.75.75,0,1,1,1.49-.21l.64,4.42a.75.75,0,0,1-.64.85h-.11A.76.76,0,0,1,1014.79,2033.08Zm-1.28-8.84-.64-4.43a.75.75,0,1,1,1.49-.21l.64,4.42a.75.75,0,0,1-.64.85h-.11A.76.76,0,0,1,1013.51,2024.24Zm-1.28-8.85-.64-4.42a.75.75,0,0,1,1.49-.22l.64,4.42a.76.76,0,0,1-.64.85H1013A.76.76,0,0,1,1012.23,2015.39Zm-1.28-8.85-.64-4.42a.75.75,0,0,1,1.49-.22l.64,4.43a.76.76,0,0,1-.64.85h-.11A.76.76,0,0,1,1011,2006.54Zm-1.28-8.85-.64-4.42a.75.75,0,1,1,1.49-.21l.64,4.42a.76.76,0,0,1-.64.85h-.11A.75.75,0,0,1,1009.67,1997.69Zm-1.28-8.84-.64-4.43a.75.75,0,1,1,1.49-.21l.63,4.42a.75.75,0,0,1-.63.85h-.11A.75.75,0,0,1,1008.39,1988.85Zm-1.28-8.85-.64-4.42a.75.75,0,0,1,.64-.85.74.74,0,0,1,.85.63l.64,4.43a.76.76,0,0,1-.64.85h-.11A.75.75,0,0,1,1007.11,1980Zm-1.28-8.85-.64-4.42a.75.75,0,0,1,.64-.85.73.73,0,0,1,.84.63l.64,4.43a.75.75,0,0,1-.63.85h-.11A.75.75,0,0,1,1005.83,1971.15Zm-1.28-8.84-.64-4.43a.75.75,0,0,1,.64-.85.73.73,0,0,1,.84.64l.64,4.42a.75.75,0,0,1-.63.85h-.11A.75.75,0,0,1,1004.55,1962.31Zm-1.28-8.85-.64-4.42a.75.75,0,0,1,.63-.85.72.72,0,0,1,.85.63l.64,4.42a.75.75,0,0,1-.63.85H1004A.74.74,0,0,1,1003.27,1953.46Zm-1.28-8.85-.64-4.42a.75.75,0,0,1,.63-.85.73.73,0,0,1,.85.63l.64,4.43a.75.75,0,0,1-.63.85h-.11A.74.74,0,0,1,1002,1944.61Zm-1.28-8.85-.64-4.42a.75.75,0,0,1,.64-.85.74.74,0,0,1,.84.64l.64,4.42a.75.75,0,0,1-.63.85h-.11A.74.74,0,0,1,1000.71,1935.76Zm-1.28-8.84-.64-4.43a.75.75,0,0,1,.63-.85.74.74,0,0,1,.85.64l.64,4.42a.75.75,0,0,1-.63.85h-.11A.74.74,0,0,1,999.43,1926.92Zm-1.28-8.85-.64-4.42a.75.75,0,1,1,1.48-.22l.64,4.42a.74.74,0,0,1-.63.85h-.11A.74.74,0,0,1,998.15,1918.07Zm-1.28-8.85-.64-4.42a.75.75,0,0,1,.63-.85.73.73,0,0,1,.85.63l.64,4.43a.75.75,0,0,1-.63.85h-.11A.74.74,0,0,1,996.87,1909.22Zm-1.28-8.84L995,1896a.75.75,0,1,1,1.48-.21l.64,4.42a.75.75,0,0,1-.63.85h-.11A.74.74,0,0,1,995.59,1900.38Zm-1.28-8.85-.64-4.43a.75.75,0,0,1,1.48-.21l.64,4.42a.75.75,0,0,1-.63.85h-.11A.74.74,0,0,1,994.31,1891.53Zm-1.28-8.85-.64-4.42a.75.75,0,1,1,1.48-.22l.64,4.43a.75.75,0,0,1-.63.85h-.11A.74.74,0,0,1,993,1882.68Zm-1.28-8.85-.64-4.42a.75.75,0,0,1,.63-.85.73.73,0,0,1,.85.63l.64,4.43a.75.75,0,0,1-.63.85h-.11A.74.74,0,0,1,991.75,1873.83Zm-1.28-8.84-.64-4.43a.75.75,0,1,1,1.48-.21l.64,4.42a.75.75,0,0,1-.63.85h-.11A.74.74,0,0,1,990.47,1865Zm-1.28-8.85-.64-4.42a.75.75,0,0,1,.63-.85.73.73,0,0,1,.85.63l.64,4.42a.75.75,0,0,1-.63.85h-.11A.74.74,0,0,1,989.19,1856.14Zm-1.28-8.85-.64-4.42a.75.75,0,1,1,1.48-.22l.64,4.43a.75.75,0,0,1-.63.85h-.11A.74.74,0,0,1,987.91,1847.29Zm-1.28-8.85L986,1834a.75.75,0,1,1,1.48-.21l.64,4.42a.75.75,0,0,1-.63.85h-.11A.74.74,0,0,1,986.63,1838.44Zm-1.28-8.84-.64-4.43a.75.75,0,1,1,1.48-.21l.64,4.42a.75.75,0,0,1-.63.85h-.11A.74.74,0,0,1,985.35,1829.6Zm-1.28-8.85-.64-4.42a.75.75,0,0,1,.63-.85.73.73,0,0,1,.85.63l.64,4.42a.74.74,0,0,1-.63.85h-.11A.74.74,0,0,1,984.07,1820.75Zm-1.28-8.85-.64-4.42a.75.75,0,1,1,1.48-.22l.64,4.43a.75.75,0,0,1-.63.85h-.11A.74.74,0,0,1,982.79,1811.9Zm-1.28-8.84-.64-4.43a.75.75,0,1,1,1.48-.21l.64,4.42a.75.75,0,0,1-.63.85h-.11A.74.74,0,0,1,981.51,1803.06Zm-1.28-8.85-.64-4.43a.73.73,0,0,1,.63-.84.74.74,0,0,1,.85.63l.64,4.42a.75.75,0,0,1-.63.85H981A.74.74,0,0,1,980.23,1794.21Zm-1.28-8.85-.64-4.42a.75.75,0,0,1,1.48-.22l.64,4.43a.75.75,0,0,1-.63.85h-.11A.74.74,0,0,1,979,1785.36Zm-1.28-8.85-.64-4.42a.75.75,0,1,1,1.48-.21l.64,4.42a.75.75,0,0,1-.63.85h-.11A.74.74,0,0,1,977.67,1776.51Zm-1.28-8.84-.64-4.43a.75.75,0,1,1,1.48-.21l.64,4.42a.75.75,0,0,1-.63.85h-.11A.74.74,0,0,1,976.39,1767.67Zm-1.28-8.85-.64-4.42a.75.75,0,1,1,1.48-.22l.64,4.42a.75.75,0,0,1-.63.85h-.11A.74.74,0,0,1,975.11,1758.82Zm-1.28-8.85-.64-4.42a.75.75,0,0,1,1.48-.22l.64,4.43a.75.75,0,0,1-.63.85h-.11A.74.74,0,0,1,973.83,1750Zm-1.28-8.84-.64-4.43a.75.75,0,1,1,1.48-.21l.64,4.42a.75.75,0,0,1-.63.85h-.11A.74.74,0,0,1,972.55,1741.13Zm-1.28-8.85-.64-4.43a.75.75,0,1,1,1.48-.21l.64,4.42a.75.75,0,0,1-.63.85H972A.74.74,0,0,1,971.27,1732.28Zm-1.28-8.85-.64-4.42a.75.75,0,1,1,1.48-.22l.64,4.43a.73.73,0,0,1-.63.84h-.11A.74.74,0,0,1,970,1723.43Zm-1.28-8.85-.64-4.42a.75.75,0,0,1,1.48-.22l.64,4.43a.75.75,0,0,1-.63.85h-.11A.74.74,0,0,1,968.71,1714.58Zm-1.28-8.84-.64-4.43a.75.75,0,1,1,1.48-.21l.64,4.42a.75.75,0,0,1-.63.85h-.11A.74.74,0,0,1,967.43,1705.74Zm-1.28-8.85-.64-4.42a.75.75,0,1,1,1.48-.22l.64,4.42a.75.75,0,0,1-.63.85h-.11A.74.74,0,0,1,966.15,1696.89Z"/><path class="cls-52" d="M1021.61,2075.77h.11a.75.75,0,0,0,.63-.85l-.32-2.23a.75.75,0,1,0-1.48.22l.32,2.22A.74.74,0,0,0,1021.61,2075.77Z"/><path class="cls-52" d="M934.93,2067.2a.75.75,0,0,1,.75-.75h4.5a.75.75,0,0,1,0,1.5h-4.5A.74.74,0,0,1,934.93,2067.2Zm9,0a.75.75,0,0,1,.75-.75h4.5a.75.75,0,0,1,0,1.5h-4.5A.74.74,0,0,1,943.93,2067.2Zm9,0a.75.75,0,0,1,.75-.75h4.5a.75.75,0,0,1,0,1.5h-4.5A.74.74,0,0,1,952.93,2067.2Zm9,0a.75.75,0,0,1,.75-.75h4.5a.75.75,0,0,1,0,1.5h-4.5A.74.74,0,0,1,961.93,2067.2Zm9,0a.75.75,0,0,1,.75-.75h4.5a.75.75,0,0,1,0,1.5h-4.5A.74.74,0,0,1,970.93,2067.2Zm9,0a.75.75,0,0,1,.75-.75h4.5a.75.75,0,0,1,0,1.5h-4.5A.74.74,0,0,1,979.93,2067.2Zm9,0a.75.75,0,0,1,.75-.75h4.5a.75.75,0,0,1,0,1.5h-4.5A.74.74,0,0,1,988.93,2067.2Zm9,0a.75.75,0,0,1,.75-.75h4.5a.75.75,0,0,1,0,1.5h-4.5A.74.74,0,0,1,997.93,2067.2Zm9,0a.75.75,0,0,1,.75-.75h4.5a.75.75,0,0,1,0,1.5h-4.5A.74.74,0,0,1,1006.93,2067.2Zm9,0a.75.75,0,0,1,.75-.75h4.5a.75.75,0,0,1,0,1.5h-4.5A.74.74,0,0,1,1015.93,2067.2Zm9,0a.75.75,0,0,1,.75-.75h4.5a.75.75,0,1,1,0,1.5h-4.5A.74.74,0,0,1,1024.93,2067.2Z"/><path class="cls-52" d="M760.72,2075.77a.75.75,0,0,1-.72-.78l0-1.82a.78.78,0,0,1,.77-.73.76.76,0,0,1,.73.78l0,1.82a.77.77,0,0,1-.75.73Zm.19-6.32a.75.75,0,0,1-.73-.78l.13-4.49a.75.75,0,0,1,1.5,0l-.13,4.5a.76.76,0,0,1-.75.73Zm.25-9a.76.76,0,0,1-.73-.77l.13-4.5a.78.78,0,0,1,.77-.73.75.75,0,0,1,.73.77l-.13,4.5a.74.74,0,0,1-.74.73Zm.26-9a.75.75,0,0,1-.73-.77l.13-4.5a.75.75,0,0,1,1.5,0l-.13,4.5a.74.74,0,0,1-.75.72Zm.26-9a.75.75,0,0,1-.73-.77l.13-4.5a.75.75,0,1,1,1.5,0l-.13,4.5a.75.75,0,0,1-.75.73Zm.25-9a.76.76,0,0,1-.73-.77l.13-4.5a.77.77,0,0,1,.77-.73.75.75,0,0,1,.73.78l-.13,4.49a.74.74,0,0,1-.74.73Zm.26-9a.74.74,0,0,1-.73-.77l.13-4.5a.74.74,0,0,1,.77-.72.75.75,0,0,1,.73.77l-.13,4.5a.74.74,0,0,1-.75.72Zm.26-9a.75.75,0,0,1-.73-.77l.13-4.5a.75.75,0,1,1,1.5,0l-.13,4.5a.75.75,0,0,1-.75.73Zm.25-9a.76.76,0,0,1-.73-.77l.13-4.5a.74.74,0,0,1,.77-.73.76.76,0,0,1,.73.78l-.13,4.49a.74.74,0,0,1-.75.73Zm.26-9a.75.75,0,0,1-.73-.77l.13-4.49a.77.77,0,0,1,.77-.73.76.76,0,0,1,.73.77l-.13,4.5a.74.74,0,0,1-.75.72Zm.26-9a.75.75,0,0,1-.73-.77l.13-4.5a.75.75,0,1,1,1.5,0l-.13,4.5a.75.75,0,0,1-.75.73Zm.25-9a.75.75,0,0,1-.73-.77l.13-4.5a.73.73,0,0,1,.77-.73.76.76,0,0,1,.73.78l-.13,4.49a.74.74,0,0,1-.75.73Zm.26-9a.76.76,0,0,1-.73-.77l.13-4.5a.74.74,0,0,1,.77-.73.76.76,0,0,1,.73.77l-.13,4.5a.74.74,0,0,1-.75.73Zm.26-9a.74.74,0,0,1-.73-.77l.12-4.5a.8.8,0,0,1,.78-.73.74.74,0,0,1,.72.77l-.12,4.5a.76.76,0,0,1-.75.73Zm.25-9a.75.75,0,0,1-.73-.77l.13-4.5a.76.76,0,0,1,.77-.72.74.74,0,0,1,.73.77l-.13,4.5a.74.74,0,0,1-.75.72Zm.26-9a.75.75,0,0,1-.73-.77l.13-4.5a.74.74,0,0,1,.77-.73.76.76,0,0,1,.73.77l-.13,4.5a.75.75,0,0,1-.75.73Zm.26-9a.74.74,0,0,1-.73-.77l.12-4.5a.77.77,0,0,1,.78-.73.75.75,0,0,1,.72.77l-.12,4.5a.76.76,0,0,1-.75.73Zm.25-9a.75.75,0,0,1-.73-.77l.13-4.49a.75.75,0,1,1,1.5,0l-.13,4.5a.74.74,0,0,1-.75.72Zm.26-9a.75.75,0,0,1-.73-.77l.13-4.5a.77.77,0,0,1,.77-.73.76.76,0,0,1,.73.77l-.13,4.5a.75.75,0,0,1-.75.73Zm.25-9a.74.74,0,0,1-.72-.77l.12-4.5a.77.77,0,0,1,.78-.73.75.75,0,0,1,.72.77l-.12,4.5a.76.76,0,0,1-.75.73Zm.26-9a.76.76,0,0,1-.73-.78l.13-4.49a.76.76,0,0,1,.77-.73.74.74,0,0,1,.73.77l-.13,4.5a.75.75,0,0,1-.75.73Zm.26-9a.75.75,0,0,1-.73-.77l.13-4.5a.73.73,0,0,1,.77-.73.76.76,0,0,1,.73.77l-.13,4.5a.75.75,0,0,1-.75.73Zm.25-9a.73.73,0,0,1-.72-.77l.12-4.5a.78.78,0,0,1,.77-.73.75.75,0,0,1,.73.78l-.12,4.49a.76.76,0,0,1-.75.73Zm.26-9a.76.76,0,0,1-.73-.77l.13-4.5a.75.75,0,1,1,1.5,0l-.13,4.5a.74.74,0,0,1-.75.73Zm.26-9a.75.75,0,0,1-.73-.77l.13-4.5a.75.75,0,1,1,1.5,0l-.13,4.5a.75.75,0,0,1-.75.73Zm.25-9a.73.73,0,0,1-.72-.77l.12-4.5a.74.74,0,0,1,.77-.72.74.74,0,0,1,.73.77l-.12,4.5a.76.76,0,0,1-.75.72Zm.26-9a.76.76,0,0,1-.73-.77l.13-4.5a.76.76,0,0,1,.77-.73.75.75,0,0,1,.73.77l-.13,4.5a.74.74,0,0,1-.75.73Zm.26-9a.75.75,0,0,1-.73-.77l.13-4.5a.78.78,0,0,1,.77-.73.76.76,0,0,1,.73.77l-.13,4.5a.75.75,0,0,1-.75.73Zm.25-9a.76.76,0,0,1-.73-.78l.13-4.49a.76.76,0,0,1,.77-.73.74.74,0,0,1,.73.77l-.13,4.5a.75.75,0,0,1-.74.73Zm.26-9a.76.76,0,0,1-.73-.77l.13-4.5a.75.75,0,1,1,1.5,0l-.13,4.5a.74.74,0,0,1-.75.73Zm.26-9a.74.74,0,0,1-.73-.77l.13-4.5a.78.78,0,0,1,.77-.73.76.76,0,0,1,.73.78l-.13,4.49a.75.75,0,0,1-.75.73Zm.25-9a.76.76,0,0,1-.73-.78l.13-4.49a.75.75,0,1,1,1.5,0l-.13,4.5a.75.75,0,0,1-.74.73Zm.26-9a.76.76,0,0,1-.73-.77l.13-4.5a.77.77,0,0,1,.77-.73.76.76,0,0,1,.73.77l-.13,4.5a.74.74,0,0,1-.75.73Zm.26-9a.74.74,0,0,1-.73-.77l.13-4.5a.75.75,0,0,1,.77-.73.76.76,0,0,1,.73.78l-.13,4.49a.75.75,0,0,1-.75.73Zm.25-9a.76.76,0,0,1-.73-.77l.13-4.5a.75.75,0,1,1,1.5,0l-.13,4.5a.74.74,0,0,1-.75.73Zm.26-9a.76.76,0,0,1-.73-.77l.13-4.5a.75.75,0,1,1,1.5,0l-.13,4.5a.74.74,0,0,1-.75.73Zm.26-9a.74.74,0,0,1-.73-.77l.13-4.5a.76.76,0,0,1,.77-.72.75.75,0,0,1,.73.77l-.13,4.5a.75.75,0,0,1-.75.72Zm.25-9a.76.76,0,0,1-.73-.77l.13-4.5a.75.75,0,1,1,1.5,0l-.13,4.5a.74.74,0,0,1-.75.73Zm.26-9a.76.76,0,0,1-.73-.77l.13-4.5a.75.75,0,0,1,1.5,0l-.13,4.5a.74.74,0,0,1-.75.73Zm.26-9a.76.76,0,0,1-.73-.78l.13-4.49a.76.76,0,0,1,.77-.73.75.75,0,0,1,.73.77l-.13,4.5a.76.76,0,0,1-.75.73Zm.25-9a.76.76,0,0,1-.73-.77l.13-4.5a.75.75,0,0,1,1.5,0l-.13,4.5a.74.74,0,0,1-.75.73Zm.26-9a.74.74,0,0,1-.73-.77l.13-4.5a.75.75,0,1,1,1.5,0l-.13,4.49a.75.75,0,0,1-.75.73Zm.26-9a.75.75,0,0,1-.73-.77l.12-4.5a.75.75,0,0,1,.78-.73.74.74,0,0,1,.72.77l-.12,4.5a.77.77,0,0,1-.75.73Zm.25-9a.76.76,0,0,1-.73-.77l.13-4.5a.78.78,0,0,1,.77-.73.75.75,0,0,1,.73.77l-.13,4.5a.74.74,0,0,1-.75.73Z"/><path class="cls-52" d="M749,2067.2a.76.76,0,0,1,.75-.75h2.88a.75.75,0,1,1,0,1.5h-2.88A.75.75,0,0,1,749,2067.2Zm7.38,0a.76.76,0,0,1,.75-.75h4.5a.75.75,0,1,1,0,1.5h-4.5A.75.75,0,0,1,756.38,2067.2Zm9,0a.76.76,0,0,1,.75-.75h4.5a.75.75,0,1,1,0,1.5h-4.5A.75.75,0,0,1,765.38,2067.2Zm9,0a.76.76,0,0,1,.75-.75h4.5a.75.75,0,1,1,0,1.5h-4.5A.75.75,0,0,1,774.38,2067.2Zm9,0a.76.76,0,0,1,.75-.75h4.5a.75.75,0,1,1,0,1.5h-4.5A.75.75,0,0,1,783.38,2067.2Zm9,0a.76.76,0,0,1,.75-.75h4.5a.75.75,0,1,1,0,1.5h-4.5A.75.75,0,0,1,792.38,2067.2Zm9,0a.76.76,0,0,1,.75-.75h4.5a.75.75,0,1,1,0,1.5h-4.5A.75.75,0,0,1,801.38,2067.2Zm9,0a.76.76,0,0,1,.75-.75h4.5a.75.75,0,1,1,0,1.5h-4.5A.75.75,0,0,1,810.38,2067.2Zm9,0a.76.76,0,0,1,.75-.75h4.5a.75.75,0,1,1,0,1.5h-4.5A.75.75,0,0,1,819.38,2067.2Zm9,0a.76.76,0,0,1,.75-.75h4.5a.75.75,0,1,1,0,1.5h-4.5A.75.75,0,0,1,828.38,2067.2Zm9,0a.76.76,0,0,1,.75-.75h4.5a.75.75,0,1,1,0,1.5h-4.5A.75.75,0,0,1,837.38,2067.2Z"/><path class="cls-13" d="M893.76,1351.92c-.18,1.1-1.16,2.37-2.23,3.93a14.08,14.08,0,0,0-2.92,6.79c-.72,7.89-14.18,15.57-14.18,15.57l-31.88-.69a38.22,38.22,0,0,0,.52-6.93,36.38,36.38,0,0,0-3.78-16.13,1.19,1.19,0,0,0-.12-.26c-5.86-11.15,38.09-7.86,49.44-5.63C892.89,1349.41,894.05,1350.47,893.76,1351.92Z"/><path class="cls-17" d="M895.49,1351.86a26.8,26.8,0,0,1-4,4c-6.41,5.43-21.18,14.53-48.46,14.74a36.38,36.38,0,0,0-3.78-16.13,53.26,53.26,0,0,1,16.41-2.6c16.5.46,32.83.18,38.06.06Z"/><path class="cls-13" d="M803.68,1319.84c8,28.43,32.48,50.56,60.91,42.55s50.66-13.28,42-71.57c-4.32-29.23-37.56-45-66-37A53.48,53.48,0,0,0,803.68,1319.84Z"/><path class="cls-18" d="M848.08,1275.94c11.74-.77,45.14,7.54,55.62,4.49s12.42-41.14,7.57-52.49-22.12-9.75-22.12-9.75c.85-7.51-12.34-15.37-40.07-5.64-24.28,8.52-28.9,26.24-28.9,26.24-29.17-3.23-43.61,25.33-26.87,71,10.06,27.45,27,39.46,27,39.46l-.19-27.48s-9.71.75-10-9.75,8.36-6.51,8.36-6.51-2.54-13.49.3-19.08C821.79,1280.51,831.91,1277,848.08,1275.94Z"/><path class="cls-53" d="M873.24,1358.71"/><path class="cls-18" d="M818.75,1286.48s-1.72,18.41,5.79,36.42S848,1350.59,862,1341.7s21.94-14.28,32.67-10.5,13.28-7.48,13.28-7.48-2.5,34.22-41.72,40.33-53.7-23.1-53.7-23.1l3.69-13.68s4-7.23-.46-25.46S818.75,1286.48,818.75,1286.48Z"/><path class="cls-27" d="M891.44,1542.08c-4.62-1.39-7.42-1.7-13.08-.52-4.57.92-9.86,5.2-11.65,6.76-.43.35-.66.58-.66.58l1.56,5,4.56,14.65.81,2.54a188.32,188.32,0,0,1-34,3.27c-1.94,0-3.87,0-5.75-.12s-3.81-.17-5.66-.32l3.12-41,1.88-24.42,8.17-107.29,1.82-23.72,29.71-.66c0,.23,0,.43,0,.66-.43,7.89-1,18-1.56,31-.69,15.17-1.56,34.18-2.66,57.93s2.51,42.13,9.33,56.15A66.64,66.64,0,0,0,891.44,1542.08Z"/><path class="cls-13" d="M840.73,1377.52v23.73c7.79,7.79,19.41,8.67,29.94,7.25.62-12.94,1.14-23.75,1.59-31.64Z"/><path class="cls-25" d="M760.85,1546.83s24.12-168.64,81.69-169.31L830.67,1533a111.86,111.86,0,0,0,34.27,12.16l8,25.9s-24.22,5-45.43,3.05l-5.38,70.37L819.68,1677l-69.09-8.63Z"/><path class="cls-25" d="M760.85,1546.83c15.94,15.29,38.68,25,66.7,27.09l15-196.4-11.77.27s-84.87,17.8-94.77,89.15C731.48,1499.54,740.77,1527.58,760.85,1546.83Z"/><path class="cls-54" d="M832.56,1508.53,830.68,1533a99.07,99.07,0,0,1-17.51-11.88c-25.37-21.7-18.78-51.78-18.78-51.78C795.31,1487.61,813.51,1500.27,832.56,1508.53Z"/><path class="cls-54" d="M891.44,1542.08s-9.62,7.43-24.73,6.24c-1.79-.14-.69-3.12-4.91-3.75-7.11-1.07-19.19-5.09-31.12-11.62l1.88-24.42c21.49,9.31,44,13,44,13l.75,1Z"/><path class="cls-27" d="M911.85,1644.51h-89.7l4.83-63.22.58-7.34v0l2.22.18.78,0c.87,0,1.76.08,2.66.11,1.88.06,3.81.12,5.75.12a188.32,188.32,0,0,0,34-3.27l-.81-2.54c1,.2,2.08.37,3.15.52.84.14,1.68.26,2.54.35.58.08,1.19.14,1.8.2,1.09.11,2.22.2,3.35.26a1,1,0,0,0,.43,0c1.42.11,2.83.17,4.22.17a112.36,112.36,0,0,0,13.38-.49c.72-.06,1.41-.15,2.11-.23s1.62-.18,2.4-.32c.57-.06,1.12-.14,1.67-.23v0l.75,12.08Z"/><path class="cls-25" d="M974.49,1552.58l7.66,83.53,1.56,25.26L913.84,1677l-2-32.48-4.63-75.7-11.73-191.3C947.44,1385.06,974.49,1552.58,974.49,1552.58Z"/><path class="cls-13" d="M866.05,1548.9l1.56,5,4.56,14.63c24.65,4.73,54.63-2.18,54.63-7.33,0-.32,0-.63,0-.89s0-.56-.06-.79l-1.05-.21c-12.67-2.61-24.52-8.06-34.18-17.23h0a32,32,0,0,0-4.67-1.08h0a23.49,23.49,0,0,0-8.41.55C872.71,1542.72,866.05,1548.9,866.05,1548.9Z"/><path class="cls-25" d="M891.46,1542.08h0c4.65,1.4,9.86,10.06,21.77,13.39,10.34,2.88,7,2.54,13.46,4,2,.39,4,.69,6,.94a102.25,102.25,0,0,0,13.69.74,52,52,0,0,0,28.1-8.63c25.32-16.71,38.14-56.38,14.6-107-31.26-67.17-89-68.72-89-68.72-.72-4-1.09-6.26-1.09-6.26H873l-.32,0h0q-.18,2.87-.37,6.29c-1,17.1-2.15,45-4.25,89.56C866.29,1503.39,876,1527.46,891.46,1542.08Z"/><path class="cls-13" d="M872.65,1370.58l.32,0h26c18.22,0,21.35-42.18,18.28-47.39a8,8,0,0,0-2.82-2.88c-3.74-2.12-9.27-.27-12.86,11.73-4.68,15.63-26,14.06-27.62,23.89C873.51,1358.92,873.09,1363.56,872.65,1370.58Z"/><path class="cls-17" d="M886.77,1541s4.09,10.57,18.66,16,21.35,3.28,21.35,3.28l-1.11-1c-12.67-2.61-24.52-8.06-34.18-17.23h0a32,32,0,0,0-4.67-1.08Z"/><path class="cls-54" d="M827.56,1574l-.58,7.34c-47.53-4.39-67.62-15.4-67.62-15.4l1.48-19C776.79,1562.13,799.53,1571.87,827.56,1574Z"/><path class="cls-54" d="M975.3,1561.44s-19.65,14-67.33,19.48l-.75-12.08c11.39-1.77,19.59-4.94,19.59-7.63a8.44,8.44,0,0,0,0-.9c1.94.09,3.93.15,5.93.15a97.51,97.51,0,0,0,13.69.75,51.92,51.92,0,0,0,28.09-8.64Z"/><path class="cls-54" d="M908,1580.92a357.23,357.23,0,0,1-40.16,2.16c-15.4,0-28.95-.69-40.83-1.79l.58-7.34c.72.06,1.47.09,2.22.15l.78,0c.87,0,1.76.08,2.66.11,1.88.06,3.81.12,5.75.12a188.32,188.32,0,0,0,34-3.27l-.81-2.54c1,.2,2.08.37,3.15.52.84.14,1.68.26,2.54.35.58.08,1.19.14,1.8.2,1.09.11,2.22.2,3.35.26a1,1,0,0,0,.43,0c1.42.11,2.83.17,4.22.17a112.36,112.36,0,0,0,13.38-.49c.72-.06,1.41-.15,2.11-.23s1.62-.18,2.4-.32c.57,0,1.12-.12,1.67-.2Z"/><path class="cls-23" d="M873,1571.87a.78.78,0,0,1-.74-.54l-8.15-26a.77.77,0,1,1,1.47-.46l8.15,26a.76.76,0,0,1-.5,1A.62.62,0,0,1,873,1571.87Z"/><path class="cls-23" d="M865,1573.13a.77.77,0,0,1-.73-.55l-8.62-29a.77.77,0,1,1,1.47-.43l8.62,29a.77.77,0,0,1-.52,1A.78.78,0,0,1,865,1573.13Z"/><path class="cls-23" d="M864.82,1545.87l-.16,0-8.48-1.76a.77.77,0,0,1,.31-1.51l8.48,1.76a.77.77,0,0,1-.15,1.53Z"/><path class="cls-23" d="M865.56,1548.23h-.14l-8.43-1.49a.77.77,0,0,1,.26-1.52l8.44,1.49a.79.79,0,0,1,.63.9A.77.77,0,0,1,865.56,1548.23Z"/><path class="cls-23" d="M866.3,1550.6h-.11l-8.4-1.21a.78.78,0,0,1-.65-.88.77.77,0,0,1,.87-.65l8.4,1.21a.77.77,0,0,1-.11,1.54Z"/><path class="cls-23" d="M867,1553H867l-8.35-.93a.77.77,0,1,1,.17-1.53l8.36.93A.77.77,0,0,1,867,1553Z"/><path class="cls-23" d="M867.78,1555.32h-.06l-8.31-.66a.77.77,0,1,1,.12-1.54l8.31.66a.78.78,0,0,1,.71.83A.77.77,0,0,1,867.78,1555.32Z"/><path class="cls-23" d="M868.52,1557.69h0l-8.27-.39a.77.77,0,1,1,.07-1.54l8.27.39a.77.77,0,0,1,0,1.54Z"/><path class="cls-23" d="M869.26,1560.05h0l-8.22-.11a.77.77,0,0,1-.76-.78.76.76,0,0,1,.77-.76h0l8.22.11a.76.76,0,0,1,.76.78A.77.77,0,0,1,869.26,1560.05Z"/><path class="cls-23" d="M861.82,1562.58a.77.77,0,0,1-.77-.76.76.76,0,0,1,.76-.78l8.18-.17a.8.8,0,0,1,.78.76.76.76,0,0,1-.75.78l-8.18.17Z"/><path class="cls-23" d="M862.6,1565.21a.76.76,0,0,1-.76-.72.77.77,0,0,1,.72-.82l8.14-.43a.77.77,0,1,1,.09,1.54l-8.14.43Z"/><path class="cls-23" d="M863.39,1567.85a.77.77,0,0,1-.07-1.53l8.1-.72a.78.78,0,0,1,.83.7.77.77,0,0,1-.7.84l-8.09.71Z"/><path class="cls-23" d="M864.17,1570.49a.77.77,0,0,1-.09-1.53l8-1a.77.77,0,1,1,.19,1.53l-8.05,1Z"/><path class="cls-23" d="M865,1573.13a.77.77,0,0,1-.11-1.53l8-1.26a.77.77,0,0,1,.24,1.52l-8,1.26Z"/><path class="cls-23" d="M899,1371.38h0l-26.38,0a.77.77,0,0,1,0-1.54h0l26.38,0a.77.77,0,0,1,0,1.54Z"/><path class="cls-23" d="M872.39,1379a.77.77,0,1,1,0-1.54l27.76,0h0a.77.77,0,1,1,0,1.54l-27.76,0Z"/><path class="cls-23" d="M872.39,1379h0a.77.77,0,0,1-.75-.79l.24-7.63a.77.77,0,0,1,.8-.75.76.76,0,0,1,.74.79l-.24,7.63A.77.77,0,0,1,872.39,1379Z"/><path class="cls-23" d="M874.91,1379h0a.79.79,0,0,1-.76-.79l.12-7.62a.77.77,0,0,1,.77-.76h0a.77.77,0,0,1,.76.78l-.12,7.63A.77.77,0,0,1,874.91,1379Z"/><path class="cls-23" d="M877.44,1379a.76.76,0,0,1-.77-.77v-7.61a.76.76,0,0,1,.77-.77h0a.77.77,0,0,1,.77.76v7.62a.77.77,0,0,1-.77.77Z"/><path class="cls-23" d="M880,1379a.77.77,0,0,1-.77-.76l-.13-7.61a.77.77,0,0,1,.75-.78.82.82,0,0,1,.79.76l.13,7.61a.77.77,0,0,1-.76.78Z"/><path class="cls-23" d="M882.48,1379a.78.78,0,0,1-.77-.75l-.26-7.6a.78.78,0,0,1,.75-.8.75.75,0,0,1,.79.75l.26,7.6a.76.76,0,0,1-.74.79Z"/><path class="cls-23" d="M885,1379a.77.77,0,0,1-.77-.73l-.39-7.6a.77.77,0,0,1,1.54-.07l.39,7.59a.77.77,0,0,1-.73.81Z"/><path class="cls-23" d="M887.53,1379a.77.77,0,0,1-.77-.72l-.51-7.59a.77.77,0,0,1,1.54-.1l.51,7.59a.77.77,0,0,1-.72.82Z"/><path class="cls-23" d="M890.06,1379a.77.77,0,0,1-.77-.71l-.64-7.58a.77.77,0,1,1,1.53-.13l.64,7.58a.76.76,0,0,1-.7.83Z"/><path class="cls-23" d="M892.58,1379a.77.77,0,0,1-.77-.69l-.76-7.58a.76.76,0,0,1,.69-.84.77.77,0,0,1,.84.69l.77,7.57a.78.78,0,0,1-.69.85Z"/><path class="cls-23" d="M895.1,1379a.77.77,0,0,1-.76-.68l-.89-7.57a.77.77,0,1,1,1.53-.18l.89,7.57a.77.77,0,0,1-.68.85Z"/><path class="cls-23" d="M897.63,1378.94a.78.78,0,0,1-.77-.66l-1-7.57a.77.77,0,1,1,1.52-.2l1,7.56a.78.78,0,0,1-.66.87Z"/><path class="cls-23" d="M900.15,1378.94a.77.77,0,0,1-.76-.65l-1.14-7.56a.76.76,0,0,1,.64-.88.78.78,0,0,1,.88.65l1.14,7.56a.75.75,0,0,1-.64.87Z"/><path class="cls-54" d="M900.1,1376.87s22.37,77.08,34.56,89,18.05-4.17,18.05-4.17l-3.14,42.19S913.52,1479.68,900.1,1376.87Z"/></g></g></svg>