<?xml version="1.0" encoding="UTF-8"?><svg xmlns="http://www.w3.org/2000/svg" xmlns:xlink="http://www.w3.org/1999/xlink" contentScriptType="text/ecmascript" width="375" zoomAndPan="magnify" contentStyleType="text/css" viewBox="0 0 375 374.999991" height="374.999991" preserveAspectRatio="xMidYMid meet" version="1.0"><defs><clipPath id="clip-0"><path d="M 60.546875 55.917969 L 239 55.917969 L 239 234 L 60.546875 234 Z M 60.546875 55.917969 " clip-rule="nonzero"/></clipPath><clipPath id="clip-1"><path d="M 144 171 L 314.445312 171 L 314.445312 291 L 144 291 Z M 144 171 " clip-rule="nonzero"/></clipPath><clipPath id="clip-2"><path d="M 108 287 L 174 287 L 174 319.167969 L 108 319.167969 Z M 108 287 " clip-rule="nonzero"/></clipPath></defs><path fill="rgb(8.628845%, 38.42926%, 94.119263%)" d="M 197.71875 194.703125 L 162.828125 210.085938 C 147.847656 199.207031 134.757812 186.457031 123.40625 173.035156 L 189.152344 179.035156 L 197.71875 194.703125 " fill-opacity="1" fill-rule="nonzero"/><path fill="rgb(8.628845%, 38.42926%, 94.119263%)" d="M 176.132812 155.226562 L 184.808594 171.097656 L 116.777344 164.890625 C 103.554688 147.976562 92.960938 130.410156 84.695312 114.4375 L 176.132812 155.226562 " fill-opacity="1" fill-rule="nonzero"/><g clip-path="url(#clip-0)"><path fill="rgb(100%, 81.568909%, 20.388794%)" d="M 197.425781 135.441406 L 238.023438 220.957031 L 227.726562 233.953125 L 181.496094 149.394531 L 79.429688 103.863281 C 66.3125 76.429688 60.621094 55.941406 60.621094 55.941406 L 197.425781 135.441406 " fill-opacity="1" fill-rule="nonzero"/></g><path fill="rgb(8.628845%, 38.42926%, 94.119263%)" d="M 201.332031 201.316406 L 211.191406 219.355469 L 198.300781 230.257812 C 188.273438 225.988281 178.859375 220.886719 170.078125 215.101562 L 201.332031 201.316406 " fill-opacity="1" fill-rule="nonzero"/><g clip-path="url(#clip-1)"><path fill="rgb(100%, 81.568909%, 20.388794%)" d="M 314.722656 186.925781 L 268.925781 171.535156 L 144.769531 290.449219 L 275.957031 257.03125 L 286.082031 202.53125 L 314.722656 186.925781 " fill-opacity="1" fill-rule="nonzero"/></g><g clip-path="url(#clip-2)"><path fill="rgb(8.628845%, 38.42926%, 94.119263%)" d="M 173.460938 287.582031 L 159 309.617188 L 108.546875 319.199219 L 136.738281 297.800781 L 173.460938 287.582031 " fill-opacity="1" fill-rule="nonzero"/></g></svg>